999
dxfrw 0.5.11
0
SECTION
2
HEADER
9
$ACADVER
1
AC1021
9
$HANDSEED
5
20000
9
$DWGCODEPAGE
3
ANSI_1252
9
$INSBASE
10
0
20
0
30
0
9
$EXTMIN
10
0
20
0
30
0
9
$EXTMAX
10
35
20
24
30
0
9
$LIMMIN
10
0
20
0
9
$LIMMAX
10
420
20
297
9
$ORTHOMODE
70
0
9
$LTSCALE
40
1
9
$TEXTSTYLE
7
STANDARD
9
$CLAYER
8
nocut
9
$DIMASZ
40
0.1
9
$DIMLFAC
40
1
9
$DIMSCALE
40
1
9
$DIMEXO
40
0.025
9
$DIMEXE
40
0.05
9
$DIMTXT
40
0.1
9
$DIMTSZ
40
0
9
$DIMAUNIT
70
0
9
$DIMADEC
70
2
9
$DIMLUNIT
70
2
9
$DIMSTYLE
2
STANDARD
9
$DIMGAP
40
0.025
9
$DIMTIH
70
0
9
$LUNITS
70
2
9
$LUPREC
70
4
9
$AUNITS
70
0
9
$AUPREC
70
2
9
$SPLINESEGS
70
8
9
$GRIDMODE
70
1
9
$SNAPSTYLE
70
0
9
$GRIDUNIT
10
0
20
0
9
$PINSBASE
10
0
20
0
30
0
9
$PLIMMIN
10
0
20
0
9
$PLIMMAX
10
0.0128149858
20
0.018124043
9
$INSUNITS
70
1
9
$PSVPSCALE
40
1
0
ENDSEC
0
SECTION
2
CLASSES
0
ENDSEC
0
SECTION
2
TABLES
0
TABLE
2
VPORT
5
8
330
0
100
AcDbSymbolTable
70
1
0
VPORT
5
31
330
2
100
AcDbSymbolTableRecord
100
AcDbViewportTableRecord
2
*ACTIVE
70
0
10
0
20
0
11
1
21
1
12
7.6166236855
22
6.75668230165
13
0
23
0
14
10
24
10
15
10
25
10
16
0
26
0
36
1
17
0
27
0
37
0
40
15.2779196507
41
1.73391812865
42
50
43
0
44
0
50
0
51
0
71
0
72
100
73
1
74
3
75
0
76
1
77
0
78
0
281
0
65
1
110
0
120
0
130
0
111
1
121
0
131
0
112
0
122
1
132
0
79
0
146
0
348
10020
60
7
61
5
292
1
282
1
141
0
142
0
63
250
421
3358443
0
ENDTAB
0
TABLE
2
LTYPE
5
5
330
0
100
AcDbSymbolTable
70
4
0
LTYPE
5
14
330
5
100
AcDbSymbolTableRecord
100
AcDbLinetypeTableRecord
2
ByBlock
70
0
3

72
65
73
0
40
0
0
LTYPE
5
15
330
5
100
AcDbSymbolTableRecord
100
AcDbLinetypeTableRecord
2
ByLayer
70
0
3

72
65
73
0
40
0
0
LTYPE
5
16
330
5
100
AcDbSymbolTableRecord
100
AcDbLinetypeTableRecord
2
Continuous
70
0
3
Solid line
72
65
73
0
40
0
0
LTYPE
5
32
330
5
100
AcDbSymbolTableRecord
100
AcDbLinetypeTableRecord
2
DOT
70
0
3
Dot . . . . . . . . . . . . . . . . . . . . . .
72
65
73
2
40
6.35
49
0
74
0
49
-6.35
74
0
0
LTYPE
5
33
330
5
100
AcDbSymbolTableRecord
100
AcDbLinetypeTableRecord
2
DOT2
70
0
3
Dot (.5x) .....................................
72
65
73
2
40
3.175
49
0
74
0
49
-3.175
74
0
0
LTYPE
5
34
330
5
100
AcDbSymbolTableRecord
100
AcDbLinetypeTableRecord
2
DOTX2
70
0
3
Dot (2x) .  .  .  .  .  .  .  .  .  .  .  .  .
72
65
73
2
40
12.7
49
0
74
0
49
-12.7
74
0
0
LTYPE
5
35
330
5
100
AcDbSymbolTableRecord
100
AcDbLinetypeTableRecord
2
DASHED
70
0
3
Dot . . . . . . . . . . . . . . . . . . . . . .
72
65
73
2
40
19.05
49
12.7
74
0
49
-6.35
74
0
0
LTYPE
5
36
330
5
100
AcDbSymbolTableRecord
100
AcDbLinetypeTableRecord
2
DASHED2
70
0
3
Dashed (.5x) _ _ _ _ _ _ _ _ _ _ _ _ _ _ _ _ _
72
65
73
2
40
9.525
49
6.35
74
0
49
-3.175
74
0
0
LTYPE
5
37
330
5
100
AcDbSymbolTableRecord
100
AcDbLinetypeTableRecord
2
DASHEDX2
70
0
3
Dashed (2x) ____  ____  ____  ____  ____  ___
72
65
73
2
40
38.1
49
25.4
74
0
49
-12.7
74
0
0
LTYPE
5
38
330
5
100
AcDbSymbolTableRecord
100
AcDbLinetypeTableRecord
2
DASHDOT
70
0
3
Dash dot __ . __ . __ . __ . __ . __ . __ . __
72
65
73
4
40
25.4
49
12.7
74
0
49
-6.35
74
0
49
0
74
0
49
-6.35
74
0
0
LTYPE
5
39
330
5
100
AcDbSymbolTableRecord
100
AcDbLinetypeTableRecord
2
DASHDOT2
70
0
3
Dash dot (.5x) _._._._._._._._._._._._._._._.
72
65
73
4
40
12.7
49
6.35
74
0
49
-3.175
74
0
49
0
74
0
49
-3.175
74
0
0
LTYPE
5
3A
330
5
100
AcDbSymbolTableRecord
100
AcDbLinetypeTableRecord
2
DASHDOTX2
70
0
3
Dash dot (2x) ____  .  ____  .  ____  .  ___
72
65
73
4
40
50.8
49
25.4
74
0
49
-12.7
74
0
49
0
74
0
49
-12.7
74
0
0
LTYPE
5
3B
330
5
100
AcDbSymbolTableRecord
100
AcDbLinetypeTableRecord
2
DIVIDE
70
0
3
Divide ____ . . ____ . . ____ . . ____ . . ____
72
65
73
6
40
31.75
49
12.7
74
0
49
-6.35
74
0
49
0
74
0
49
-6.35
74
0
49
0
74
0
49
-6.35
74
0
0
LTYPE
5
3C
330
5
100
AcDbSymbolTableRecord
100
AcDbLinetypeTableRecord
2
DIVIDE2
70
0
3
Divide (.5x) __..__..__..__..__..__..__..__.._
72
65
73
6
40
15.875
49
6.35
74
0
49
-3.175
74
0
49
0
74
0
49
-3.175
74
0
49
0
74
0
49
-3.175
74
0
0
LTYPE
5
3D
330
5
100
AcDbSymbolTableRecord
100
AcDbLinetypeTableRecord
2
DIVIDEX2
70
0
3
Divide (2x) ________  .  .  ________  .  .  _
72
65
73
6
40
63.5
49
25.4
74
0
49
-12.7
74
0
49
0
74
0
49
-12.7
74
0
49
0
74
0
49
-12.7
74
0
0
LTYPE
5
3E
330
5
100
AcDbSymbolTableRecord
100
AcDbLinetypeTableRecord
2
BORDER
70
0
3
Border __ __ . __ __ . __ __ . __ __ . __ __ .
72
65
73
6
40
44.45
49
12.7
74
0
49
-6.35
74
0
49
12.7
74
0
49
-6.35
74
0
49
0
74
0
49
-6.35
74
0
0
LTYPE
5
3F
330
5
100
AcDbSymbolTableRecord
100
AcDbLinetypeTableRecord
2
BORDER2
70
0
3
Border (.5x) __.__.__.__.__.__.__.__.__.__.__.
72
65
73
6
40
22.225
49
6.35
74
0
49
-3.175
74
0
49
6.35
74
0
49
-3.175
74
0
49
0
74
0
49
-3.175
74
0
0
LTYPE
5
40
330
5
100
AcDbSymbolTableRecord
100
AcDbLinetypeTableRecord
2
BORDERX2
70
0
3
Border (2x) ____  ____  .  ____  ____  .  ___
72
65
73
6
40
88.9
49
25.4
74
0
49
-12.7
74
0
49
25.4
74
0
49
-12.7
74
0
49
0
74
0
49
-12.7
74
0
0
LTYPE
5
41
330
5
100
AcDbSymbolTableRecord
100
AcDbLinetypeTableRecord
2
CENTER
70
0
3
Center ____ _ ____ _ ____ _ ____ _ ____ _ ____
72
65
73
4
40
50.8
49
31.75
74
0
49
-6.35
74
0
49
6.35
74
0
49
-6.35
74
0
0
LTYPE
5
42
330
5
100
AcDbSymbolTableRecord
100
AcDbLinetypeTableRecord
2
CENTER2
70
0
3
Center (.5x) ___ _ ___ _ ___ _ ___ _ ___ _ ___
72
65
73
4
40
28.575
49
19.05
74
0
49
-3.175
74
0
49
3.175
74
0
49
-3.175
74
0
0
LTYPE
5
43
330
5
100
AcDbSymbolTableRecord
100
AcDbLinetypeTableRecord
2
CENTERX2
70
0
3
Center (2x) ________  __  ________  __  _____
72
65
73
4
40
101.6
49
63.5
74
0
49
-12.7
74
0
49
12.7
74
0
49
-12.7
74
0
0
ENDTAB
0
TABLE
2
LAYER
5
2
330
0
100
AcDbSymbolTable
70
1
0
LAYER
5
10
330
2
100
AcDbSymbolTableRecord
100
AcDbLayerTableRecord
2
0
70
0
62
7
6
CONTINUOUS
370
0
390
F
0
LAYER
5
44
330
2
100
AcDbSymbolTableRecord
100
AcDbLayerTableRecord
2
lasercutter
70
0
62
5
6
CONTINUOUS
370
0
390
F
0
LAYER
5
45
330
2
100
AcDbSymbolTableRecord
100
AcDbLayerTableRecord
2
material
70
0
62
4
6
CONTINUOUS
370
0
390
F
0
LAYER
5
46
330
2
100
AcDbSymbolTableRecord
100
AcDbLayerTableRecord
2
nocut
70
0
62
96
420
32768
6
CONTINUOUS
370
0
390
F
0
LAYER
5
47
330
2
100
AcDbSymbolTableRecord
100
AcDbLayerTableRecord
2
vector
70
0
62
3
6
CONTINUOUS
370
0
390
F
0
ENDTAB
0
TABLE
2
STYLE
5
3
330
0
100
AcDbSymbolTable
70
3
0
STYLE
5
48
330
2
100
AcDbSymbolTableRecord
100
AcDbTextStyleTableRecord
2
Standard
70
0
40
0
41
1
50
0
71
0
42
1
3
txt
4

0
ENDTAB
0
TABLE
2
VIEW
5
6
330
0
100
AcDbSymbolTable
70
0
0
ENDTAB
0
TABLE
2
UCS
5
7
330
0
100
AcDbSymbolTable
70
0
0
ENDTAB
0
TABLE
2
APPID
5
9
330
0
100
AcDbSymbolTable
70
1
0
APPID
5
12
330
9
100
AcDbSymbolTableRecord
100
AcDbRegAppTableRecord
2
ACAD
70
0
0
ENDTAB
0
TABLE
2
DIMSTYLE
5
A
330
0
100
AcDbSymbolTable
70
1
100
AcDbDimStyleTable
71
1
0
DIMSTYLE
105
49
330
A
100
AcDbSymbolTableRecord
100
AcDbDimStyleTableRecord
2
Standard
70
0
40
1
41
0.1
42
0.025
43
0.38
44
0.05
45
0
46
0
47
0
48
0
140
0.1
141
0.09
142
0
143
25.4
144
1
145
0
146
1
147
0.025
148
0
71
0
72
0
73
0
74
1
75
0
76
0
77
0
78
0
79
0
170
0
171
2
172
0
173
0
174
0
175
0
176
0
177
0
178
0
179
0
271
4
272
4
273
2
274
2
275
0
276
0
277
2
278
46
279
0
280
0
281
0
282
0
283
1
284
0
285
0
286
0
288
0
289
3
340
Standard
341

371
-2
372
-2
0
ENDTAB
0
TABLE
2
BLOCK_RECORD
5
1
330
0
100
AcDbSymbolTable
70
2
0
BLOCK_RECORD
5
1F
330
1
100
AcDbSymbolTableRecord
100
AcDbBlockTableRecord
2
*Model_Space
70
0
280
1
281
0
0
BLOCK_RECORD
5
1E
330
1
100
AcDbSymbolTableRecord
100
AcDbBlockTableRecord
2
*Paper_Space
70
0
280
1
281
0
0
ENDTAB
0
ENDSEC
0
SECTION
2
BLOCKS
0
BLOCK
5
20
330
1F
100
AcDbEntity
8
0
100
AcDbBlockBegin
2
*Model_Space
70
0
10
0
20
0
30
0
3
*Model_Space
1

0
ENDBLK
5
21
330
1F
100
AcDbEntity
8
0
100
AcDbBlockEnd
0
BLOCK
5
1C
330
1B
100
AcDbEntity
8
0
100
AcDbBlockBegin
2
*Paper_Space
70
0
10
0
20
0
30
0
3
*Paper_Space
1

0
ENDBLK
5
1D
330
1F
100
AcDbEntity
8
0
100
AcDbBlockEnd
0
ENDSEC
0
SECTION
2
ENTITIES
0
LWPOLYLINE
5
4A
100
AcDbEntity
8
lasercutter
6
ByLayer
62
256
370
-1
100
AcDbPolyline
90
4
70
1
43
0
10
0
20
0
10
35
20
0
10
35
20
23
10
0
20
23
0
LWPOLYLINE
5
4B
100
AcDbEntity
8
material
6
ByLayer
62
256
370
-1
100
AcDbPolyline
90
4
70
1
43
0
10
0
20
0
10
24
20
0
10
24
20
24
10
0
20
24
0
ARC
5
4C
100
AcDbEntity
8
nocut
6
ByLayer
62
256
370
-1
100
AcDbCircle
10
8.16484251968
20
5.29562992126
40
0.125
100
AcDbArc
50
90
51
180
0
LINE
5
4D
100
AcDbEntity
8
nocut
6
ByLayer
62
256
370
-1
100
AcDbLine
10
15.3951574803
20
5.42062992126
11
8.16484251968
21
5.42062992126
0
ARC
5
4E
100
AcDbEntity
8
nocut
6
ByLayer
62
256
370
-1
100
AcDbCircle
10
15.3951574803
20
5.29562992126
40
0.125
100
AcDbArc
50
4.07110999227e-13
51
90
0
LINE
5
4F
100
AcDbEntity
8
nocut
6
ByLayer
62
256
370
-1
100
AcDbLine
10
15.5201574803
20
0.62437007874
11
15.5201574803
21
5.29562992126
0
ARC
5
50
100
AcDbEntity
8
nocut
6
ByLayer
62
256
370
-1
100
AcDbCircle
10
15.3951574803
20
0.62437007874
40
0.125
100
AcDbArc
50
270
51
0
0
LINE
5
51
100
AcDbEntity
8
nocut
6
ByLayer
62
256
370
-1
100
AcDbLine
10
8.03984251968
20
5.29562992126
11
8.03984251968
21
0.62437007874
0
LINE
5
52
100
AcDbEntity
8
nocut
6
ByLayer
62
256
370
-1
100
AcDbLine
10
8.16484251968
20
0.49937007874
11
15.3951574803
21
0.49937007874
0
ARC
5
53
100
AcDbEntity
8
nocut
6
ByLayer
62
256
370
-1
100
AcDbCircle
10
8.16484251968
20
0.62437007874
40
0.125
100
AcDbArc
50
180
51
270
0
CIRCLE
5
54
100
AcDbEntity
8
nocut
6
ByLayer
62
256
370
-1
100
AcDbCircle
10
13.22685
20
4.10173
40
0.08
0
CIRCLE
5
55
100
AcDbEntity
8
nocut
6
ByLayer
62
256
370
-1
100
AcDbCircle
10
14.13236
20
4.10173
40
0.08
0
CIRCLE
5
56
100
AcDbEntity
8
nocut
6
ByLayer
62
256
370
-1
100
AcDbCircle
10
13.22685
20
1.81827
40
0.08
0
CIRCLE
5
57
100
AcDbEntity
8
nocut
6
ByLayer
62
256
370
-1
100
AcDbCircle
10
14.13236
20
1.81827
40
0.08
0
ARC
5
58
100
AcDbEntity
8
vector
6
ByLayer
62
256
370
-1
100
AcDbCircle
10
0.624842519685
20
10.2956299213
40
0.125
100
AcDbArc
50
90
51
180
0
LINE
5
59
100
AcDbEntity
8
vector
6
ByLayer
62
256
370
-1
100
AcDbLine
10
7.85515748031
20
10.4206299213
11
0.624842519685
21
10.4206299213
0
ARC
5
5A
100
AcDbEntity
8
vector
6
ByLayer
62
256
370
-1
100
AcDbCircle
10
7.85515748031
20
10.2956299213
40
0.125
100
AcDbArc
50
4.07110999227e-13
51
90
0
LINE
5
5B
100
AcDbEntity
8
vector
6
ByLayer
62
256
370
-1
100
AcDbLine
10
7.98015748031
20
5.62437007874
11
7.98015748031
21
10.2956299213
0
ARC
5
5C
100
AcDbEntity
8
vector
6
ByLayer
62
256
370
-1
100
AcDbCircle
10
7.85515748031
20
5.62437007874
40
0.125
100
AcDbArc
50
270
51
0
0
LINE
5
5D
100
AcDbEntity
8
vector
6
ByLayer
62
256
370
-1
100
AcDbLine
10
0.499842519685
20
10.2956299213
11
0.499842519685
21
5.62437007874
0
LINE
5
5E
100
AcDbEntity
8
vector
6
ByLayer
62
256
370
-1
100
AcDbLine
10
0.624842519685
20
5.49937007874
11
7.85515748031
21
5.49937007874
0
ARC
5
5F
100
AcDbEntity
8
vector
6
ByLayer
62
256
370
-1
100
AcDbCircle
10
0.624842519685
20
5.62437007874
40
0.125
100
AcDbArc
50
180
51
270
0
ARC
5
60
100
AcDbEntity
8
vector
6
ByLayer
62
256
370
-1
100
AcDbCircle
10
4.24
20
6.32023622047
40
0.275
100
AcDbArc
50
0
51
180.000005544
0
ARC
5
61
100
AcDbEntity
8
vector
6
ByLayer
62
256
370
-1
100
AcDbCircle
10
3.915
20
6.24937007874
40
0.05
100
AcDbArc
50
270
51
0
0
LINE
5
62
100
AcDbEntity
8
vector
6
ByLayer
62
256
370
-1
100
AcDbLine
10
3.965
20
6.32023619386
11
3.965
21
6.24937007874
0
ARC
5
63
100
AcDbEntity
8
vector
6
ByLayer
62
256
370
-1
100
AcDbCircle
10
4.565
20
6.24937007874
40
0.05
100
AcDbArc
50
180
51
270
0
LINE
5
64
100
AcDbEntity
8
vector
6
ByLayer
62
256
370
-1
100
AcDbLine
10
4.515
20
6.32023622047
11
4.515
21
6.24937007874
0
ARC
5
65
100
AcDbEntity
8
vector
6
ByLayer
62
256
370
-1
100
AcDbCircle
10
3.79787401575
20
6.14937007874
40
0.05
100
AcDbArc
50
90
51
180
0
LINE
5
66
100
AcDbEntity
8
vector
6
ByLayer
62
256
370
-1
100
AcDbLine
10
3.79787401575
20
6.19937007874
11
3.915
21
6.19937007874
0
ARC
5
67
100
AcDbEntity
8
vector
6
ByLayer
62
256
370
-1
100
AcDbCircle
10
4.68212598425
20
6.14937007874
40
0.05
100
AcDbArc
50
0
51
90
0
LINE
5
68
100
AcDbEntity
8
vector
6
ByLayer
62
256
370
-1
100
AcDbLine
10
4.565
20
6.19937007874
11
4.68212598425
21
6.19937007874
0
ARC
5
69
100
AcDbEntity
8
vector
6
ByLayer
62
256
370
-1
100
AcDbCircle
10
3.79787401575
20
5.79937007874
40
0.05
100
AcDbArc
50
180
51
270
0
ARC
5
6A
100
AcDbEntity
8
vector
6
ByLayer
62
256
370
-1
100
AcDbCircle
10
4.68212598425
20
5.79937007874
40
0.05
100
AcDbArc
50
270
51
0
0
LINE
5
6B
100
AcDbEntity
8
vector
6
ByLayer
62
256
370
-1
100
AcDbLine
10
3.74787401575
20
6.14937007874
11
3.74787401575
21
5.79937007874
0
LINE
5
6C
100
AcDbEntity
8
vector
6
ByLayer
62
256
370
-1
100
AcDbLine
10
3.79787401575
20
5.74937007874
11
4.68212598425
21
5.74937007874
0
LINE
5
6D
100
AcDbEntity
8
vector
6
ByLayer
62
256
370
-1
100
AcDbLine
10
4.73212598425
20
5.79937007874
11
4.73212598425
21
6.14937007874
0
CIRCLE
5
6E
100
AcDbEntity
8
vector
6
ByLayer
62
256
370
-1
100
AcDbCircle
10
4.24
20
6.32024
40
0.0625
0
CIRCLE
5
6F
100
AcDbEntity
8
vector
6
ByLayer
62
256
370
-1
100
AcDbCircle
10
1.04
20
6.96
40
0.08
0
CIRCLE
5
70
100
AcDbEntity
8
vector
6
ByLayer
62
256
370
-1
100
AcDbCircle
10
3.34
20
6.96
40
0.08
0
CIRCLE
5
71
100
AcDbEntity
8
vector
6
ByLayer
62
256
370
-1
100
AcDbCircle
10
1.04
20
6.16
40
0.08
0
CIRCLE
5
72
100
AcDbEntity
8
vector
6
ByLayer
62
256
370
-1
100
AcDbCircle
10
3.34
20
6.16
40
0.08
0
ARC
5
73
100
AcDbEntity
8
vector
6
ByLayer
62
256
370
-1
100
AcDbCircle
10
5.34395313644
20
6.295
40
0.025
100
AcDbArc
50
90
51
180
0
ARC
5
74
100
AcDbEntity
8
vector
6
ByLayer
62
256
370
-1
100
AcDbCircle
10
5.48604686356
20
6.295
40
0.025
100
AcDbArc
50
0
51
90
0
ARC
5
75
100
AcDbEntity
8
vector
6
ByLayer
62
256
370
-1
100
AcDbCircle
10
5.29395313644
20
6.245
40
0.025
100
AcDbArc
50
270
51
0
0
ARC
5
76
100
AcDbEntity
8
vector
6
ByLayer
62
256
370
-1
100
AcDbCircle
10
5.53604686356
20
6.245
40
0.025
100
AcDbArc
50
180
51
270
0
ARC
5
77
100
AcDbEntity
8
vector
6
ByLayer
62
256
370
-1
100
AcDbCircle
10
5.04
20
6.195
40
0.025
100
AcDbArc
50
90
51
180
0
ARC
5
78
100
AcDbEntity
8
vector
6
ByLayer
62
256
370
-1
100
AcDbCircle
10
5.79
20
6.195
40
0.025
100
AcDbArc
50
0
51
90
0
ARC
5
79
100
AcDbEntity
8
vector
6
ByLayer
62
256
370
-1
100
AcDbCircle
10
5.79
20
5.76
40
0.025
100
AcDbArc
50
270
51
0
0
ARC
5
7A
100
AcDbEntity
8
vector
6
ByLayer
62
256
370
-1
100
AcDbCircle
10
5.04
20
5.76
40
0.025
100
AcDbArc
50
180
51
270
0
LINE
5
7B
100
AcDbEntity
8
vector
6
ByLayer
62
256
370
-1
100
AcDbLine
10
5.34395313644
20
6.32
11
5.48604686356
21
6.32
0
LINE
5
7C
100
AcDbEntity
8
vector
6
ByLayer
62
256
370
-1
100
AcDbLine
10
5.51104686356
20
6.295
11
5.51104686356
21
6.245
0
LINE
5
7D
100
AcDbEntity
8
vector
6
ByLayer
62
256
370
-1
100
AcDbLine
10
5.53604686356
20
6.22
11
5.79
21
6.22
0
LINE
5
7E
100
AcDbEntity
8
vector
6
ByLayer
62
256
370
-1
100
AcDbLine
10
5.815
20
6.195
11
5.815
21
5.76
0
LINE
5
7F
100
AcDbEntity
8
vector
6
ByLayer
62
256
370
-1
100
AcDbLine
10
5.79
20
5.735
11
5.04
21
5.735
0
LINE
5
80
100
AcDbEntity
8
vector
6
ByLayer
62
256
370
-1
100
AcDbLine
10
5.015
20
5.76
11
5.015
21
6.195
0
LINE
5
81
100
AcDbEntity
8
vector
6
ByLayer
62
256
370
-1
100
AcDbLine
10
5.04
20
6.22
11
5.29395313644
21
6.22
0
LINE
5
82
100
AcDbEntity
8
vector
6
ByLayer
62
256
370
-1
100
AcDbLine
10
5.31895313644
20
6.245
11
5.31895313644
21
6.295
0
CIRCLE
5
83
100
AcDbEntity
8
vector
6
ByLayer
62
256
370
-1
100
AcDbCircle
10
6.34
20
6.16
40
0.15
0
CIRCLE
5
84
100
AcDbEntity
8
vector
6
ByLayer
62
256
370
-1
100
AcDbCircle
10
6.84
20
6.16
40
0.15
0
CIRCLE
5
85
100
AcDbEntity
8
vector
6
ByLayer
62
256
370
-1
100
AcDbCircle
10
7.34
20
6.16
40
0.15
0
CIRCLE
5
86
100
AcDbEntity
8
vector
6
ByLayer
62
256
370
-1
100
AcDbCircle
10
5.415
20
6.14
40
0.0625
0
CIRCLE
5
87
100
AcDbEntity
8
vector
6
ByLayer
62
256
370
-1
100
AcDbCircle
10
5.69
20
6.31
40
0.058
0
CIRCLE
5
88
100
AcDbEntity
8
vector
6
ByLayer
62
256
370
-1
100
AcDbCircle
10
5.14
20
6.31
40
0.058
0
CIRCLE
5
89
100
AcDbEntity
8
vector
6
ByLayer
62
256
370
-1
100
AcDbCircle
10
4.65339
20
6.32024
40
0.058
0
CIRCLE
5
8A
100
AcDbEntity
8
vector
6
ByLayer
62
256
370
-1
100
AcDbCircle
10
3.82661
20
6.32024
40
0.058
0
ARC
5
8B
100
AcDbEntity
8
nocut
6
ByLayer
62
256
370
-1
100
AcDbCircle
10
0.624842519685
20
5.29562992126
40
0.125
100
AcDbArc
50
90
51
180
0
LINE
5
8C
100
AcDbEntity
8
nocut
6
ByLayer
62
256
370
-1
100
AcDbLine
10
7.85515748031
20
5.42062992126
11
0.624842519685
21
5.42062992126
0
ARC
5
8D
100
AcDbEntity
8
nocut
6
ByLayer
62
256
370
-1
100
AcDbCircle
10
7.85515748031
20
5.29562992126
40
0.125
100
AcDbArc
50
4.07110999227e-13
51
90
0
LINE
5
8E
100
AcDbEntity
8
nocut
6
ByLayer
62
256
370
-1
100
AcDbLine
10
7.98015748031
20
0.62437007874
11
7.98015748031
21
5.29562992126
0
ARC
5
8F
100
AcDbEntity
8
nocut
6
ByLayer
62
256
370
-1
100
AcDbCircle
10
7.85515748031
20
0.62437007874
40
0.125
100
AcDbArc
50
270
51
0
0
LINE
5
90
100
AcDbEntity
8
nocut
6
ByLayer
62
256
370
-1
100
AcDbLine
10
0.499842519685
20
5.29562992126
11
0.499842519685
21
0.62437007874
0
LINE
5
91
100
AcDbEntity
8
nocut
6
ByLayer
62
256
370
-1
100
AcDbLine
10
0.624842519685
20
0.49937007874
11
7.85515748031
21
0.49937007874
0
ARC
5
92
100
AcDbEntity
8
nocut
6
ByLayer
62
256
370
-1
100
AcDbCircle
10
0.624842519685
20
0.62437007874
40
0.125
100
AcDbArc
50
180
51
270
0
ARC
5
93
100
AcDbEntity
8
nocut
6
ByLayer
62
256
370
-1
100
AcDbCircle
10
4.24
20
1.32023622047
40
0.275
100
AcDbArc
50
0
51
180.000005544
0
ARC
5
94
100
AcDbEntity
8
nocut
6
ByLayer
62
256
370
-1
100
AcDbCircle
10
3.915
20
1.24937007874
40
0.05
100
AcDbArc
50
270
51
0
0
LINE
5
95
100
AcDbEntity
8
nocut
6
ByLayer
62
256
370
-1
100
AcDbLine
10
3.965
20
1.32023619386
11
3.965
21
1.24937007874
0
ARC
5
96
100
AcDbEntity
8
nocut
6
ByLayer
62
256
370
-1
100
AcDbCircle
10
4.565
20
1.24937007874
40
0.05
100
AcDbArc
50
180
51
270
0
LINE
5
97
100
AcDbEntity
8
nocut
6
ByLayer
62
256
370
-1
100
AcDbLine
10
4.515
20
1.32023622047
11
4.515
21
1.24937007874
0
ARC
5
98
100
AcDbEntity
8
nocut
6
ByLayer
62
256
370
-1
100
AcDbCircle
10
3.79787401575
20
1.14937007874
40
0.05
100
AcDbArc
50
90
51
180
0
LINE
5
99
100
AcDbEntity
8
nocut
6
ByLayer
62
256
370
-1
100
AcDbLine
10
3.79787401575
20
1.19937007874
11
3.915
21
1.19937007874
0
ARC
5
9A
100
AcDbEntity
8
nocut
6
ByLayer
62
256
370
-1
100
AcDbCircle
10
4.68212598425
20
1.14937007874
40
0.05
100
AcDbArc
50
0
51
90
0
LINE
5
9B
100
AcDbEntity
8
nocut
6
ByLayer
62
256
370
-1
100
AcDbLine
10
4.565
20
1.19937007874
11
4.68212598425
21
1.19937007874
0
ARC
5
9C
100
AcDbEntity
8
nocut
6
ByLayer
62
256
370
-1
100
AcDbCircle
10
3.79787401575
20
0.79937007874
40
0.05
100
AcDbArc
50
180
51
270
0
ARC
5
9D
100
AcDbEntity
8
nocut
6
ByLayer
62
256
370
-1
100
AcDbCircle
10
4.68212598425
20
0.79937007874
40
0.05
100
AcDbArc
50
270
51
0
0
LINE
5
9E
100
AcDbEntity
8
nocut
6
ByLayer
62
256
370
-1
100
AcDbLine
10
3.74787401575
20
1.14937007874
11
3.74787401575
21
0.79937007874
0
LINE
5
9F
100
AcDbEntity
8
nocut
6
ByLayer
62
256
370
-1
100
AcDbLine
10
3.79787401575
20
0.74937007874
11
4.68212598425
21
0.74937007874
0
LINE
5
A0
100
AcDbEntity
8
nocut
6
ByLayer
62
256
370
-1
100
AcDbLine
10
4.73212598425
20
0.79937007874
11
4.73212598425
21
1.14937007874
0
CIRCLE
5
A1
100
AcDbEntity
8
nocut
6
ByLayer
62
256
370
-1
100
AcDbCircle
10
4.24
20
1.32024
40
0.0625
0
CIRCLE
5
A2
100
AcDbEntity
8
nocut
6
ByLayer
62
256
370
-1
100
AcDbCircle
10
1.04
20
1.96
40
0.08
0
CIRCLE
5
A3
100
AcDbEntity
8
nocut
6
ByLayer
62
256
370
-1
100
AcDbCircle
10
3.34
20
1.96
40
0.08
0
CIRCLE
5
A4
100
AcDbEntity
8
nocut
6
ByLayer
62
256
370
-1
100
AcDbCircle
10
1.04
20
1.16
40
0.08
0
CIRCLE
5
A5
100
AcDbEntity
8
nocut
6
ByLayer
62
256
370
-1
100
AcDbCircle
10
3.34
20
1.16
40
0.08
0
ARC
5
A6
100
AcDbEntity
8
nocut
6
ByLayer
62
256
370
-1
100
AcDbCircle
10
5.34395313644
20
1.295
40
0.025
100
AcDbArc
50
90
51
180
0
ARC
5
A7
100
AcDbEntity
8
nocut
6
ByLayer
62
256
370
-1
100
AcDbCircle
10
5.48604686356
20
1.295
40
0.025
100
AcDbArc
50
0
51
90
0
ARC
5
A8
100
AcDbEntity
8
nocut
6
ByLayer
62
256
370
-1
100
AcDbCircle
10
5.29395313644
20
1.245
40
0.025
100
AcDbArc
50
270
51
0
0
ARC
5
A9
100
AcDbEntity
8
nocut
6
ByLayer
62
256
370
-1
100
AcDbCircle
10
5.53604686356
20
1.245
40
0.025
100
AcDbArc
50
180
51
270
0
ARC
5
AA
100
AcDbEntity
8
nocut
6
ByLayer
62
256
370
-1
100
AcDbCircle
10
5.04
20
1.195
40
0.025
100
AcDbArc
50
90
51
180
0
ARC
5
AB
100
AcDbEntity
8
nocut
6
ByLayer
62
256
370
-1
100
AcDbCircle
10
5.79
20
1.195
40
0.025
100
AcDbArc
50
0
51
90
0
ARC
5
AC
100
AcDbEntity
8
nocut
6
ByLayer
62
256
370
-1
100
AcDbCircle
10
5.79
20
0.76
40
0.025
100
AcDbArc
50
270
51
0
0
ARC
5
AD
100
AcDbEntity
8
nocut
6
ByLayer
62
256
370
-1
100
AcDbCircle
10
5.04
20
0.76
40
0.025
100
AcDbArc
50
180
51
270
0
LINE
5
AE
100
AcDbEntity
8
nocut
6
ByLayer
62
256
370
-1
100
AcDbLine
10
5.34395313644
20
1.32
11
5.48604686356
21
1.32
0
LINE
5
AF
100
AcDbEntity
8
nocut
6
ByLayer
62
256
370
-1
100
AcDbLine
10
5.51104686356
20
1.295
11
5.51104686356
21
1.245
0
LINE
5
B0
100
AcDbEntity
8
nocut
6
ByLayer
62
256
370
-1
100
AcDbLine
10
5.53604686356
20
1.22
11
5.79
21
1.22
0
LINE
5
B1
100
AcDbEntity
8
nocut
6
ByLayer
62
256
370
-1
100
AcDbLine
10
5.815
20
1.195
11
5.815
21
0.76
0
LINE
5
B2
100
AcDbEntity
8
nocut
6
ByLayer
62
256
370
-1
100
AcDbLine
10
5.79
20
0.735
11
5.04
21
0.735
0
LINE
5
B3
100
AcDbEntity
8
nocut
6
ByLayer
62
256
370
-1
100
AcDbLine
10
5.015
20
0.76
11
5.015
21
1.195
0
LINE
5
B4
100
AcDbEntity
8
nocut
6
ByLayer
62
256
370
-1
100
AcDbLine
10
5.04
20
1.22
11
5.29395313644
21
1.22
0
LINE
5
B5
100
AcDbEntity
8
nocut
6
ByLayer
62
256
370
-1
100
AcDbLine
10
5.31895313644
20
1.245
11
5.31895313644
21
1.295
0
CIRCLE
5
B6
100
AcDbEntity
8
nocut
6
ByLayer
62
256
370
-1
100
AcDbCircle
10
6.34
20
1.16
40
0.15
0
CIRCLE
5
B7
100
AcDbEntity
8
nocut
6
ByLayer
62
256
370
-1
100
AcDbCircle
10
6.84
20
1.16
40
0.15
0
CIRCLE
5
B8
100
AcDbEntity
8
nocut
6
ByLayer
62
256
370
-1
100
AcDbCircle
10
7.34
20
1.16
40
0.15
0
CIRCLE
5
B9
100
AcDbEntity
8
nocut
6
ByLayer
62
256
370
-1
100
AcDbCircle
10
5.415
20
1.14
40
0.0625
0
CIRCLE
5
BA
100
AcDbEntity
8
nocut
6
ByLayer
62
256
370
-1
100
AcDbCircle
10
5.69
20
1.31
40
0.058
0
CIRCLE
5
BB
100
AcDbEntity
8
nocut
6
ByLayer
62
256
370
-1
100
AcDbCircle
10
5.14
20
1.31
40
0.058
0
CIRCLE
5
BC
100
AcDbEntity
8
nocut
6
ByLayer
62
256
370
-1
100
AcDbCircle
10
4.65339
20
1.32024
40
0.058
0
CIRCLE
5
BD
100
AcDbEntity
8
nocut
6
ByLayer
62
256
370
-1
100
AcDbCircle
10
3.82661
20
1.32024
40
0.058
0
ENDSEC
0
SECTION
2
OBJECTS
0
DICTIONARY
5
C
330
0
100
AcDbDictionary
281
1
3
ACAD_GROUP
350
D
0
DICTIONARY
5
D
330
C
100
AcDbDictionary
281
1
0
ENDSEC
0
EOF
