999
dxfrw 0.6.3
  0
SECTION
  2
HEADER
  9
$ACADVER
  1
AC1021
  9
$DWGCODEPAGE
  3
ANSI_1252
  9
$INSBASE
 10
0
 20
0
 30
0
  9
$EXTMIN
 10
-1.25
 20
-0.9999999999999999
 30
0
  9
$EXTMAX
 10
1.44684251968504
 20
0.9999999999999999
 30
0
  9
$LIMMIN
 10
0
 20
0
  9
$LIMMAX
 10
420
 20
297
  9
$ORTHOMODE
 70
    0
  9
$REGENMODE
 70
    1
  9
$FILLMODE
 70
    1
  9
$QTEXTMODE
 70
    0
  9
$MIRRTEXT
 70
    0
  9
$LTSCALE
 40
1
  9
$ATTMODE
 70
    0
  9
$TEXTSIZE
 40
2.5
  9
$TRACEWID
 40
15.68
  9
$TEXTSTYLE
  7
STANDARD
  9
$CLAYER
  8
0
  9
$CELTYPE
  6
BYLAYER
  9
$CECOLOR
 62
  256
  9
$CELTSCALE
 40
1
  9
$DISPSILH
 70
    0
  9
$DIMSCALE
 40
0.1
  9
$DIMASZ
 40
1
  9
$DIMEXO
 40
0.625
  9
$DIMDLI
 40
3.75
  9
$DIMRND
 40
0
  9
$DIMDLE
 40
0
  9
$DIMEXE
 40
0.05
  9
$DIMTP
 40
0
  9
$DIMTM
 40
0
  9
$DIMTXT
 40
1
  9
$DIMCEN
 40
2.5
  9
$DIMTSZ
 40
0
  9
$DIMTOL
 70
    0
  9
$DIMLIM
 70
    0
  9
$DIMTIH
 70
    0
  9
$DIMTOH
 70
    0
  9
$DIMSE1
 70
    0
  9
$DIMSE2
 70
    0
  9
$DIMTAD
 70
    1
  9
$DIMZIN
 70
    8
  9
$DIMBLK
  1

  9
$DIMASO
 70
    1
  9
$DIMSHO
 70
    1
  9
$DIMPOST
  1

  9
$DIMAPOST
  1

  9
$DIMALT
 70
    0
  9
$DIMALTD
 70
    3
  9
$DIMALTF
 40
0.03937
  9
$DIMLFAC
 40
1
  9
$DIMTOFL
 70
    1
  9
$DIMTVP
 40
0
  9
$DIMTIX
 70
    0
  9
$DIMSOXD
 70
    0
  9
$DIMSAH
 70
    0
  9
$DIMBLK1
  1

  9
$DIMBLK2
  1

  9
$DIMSTYLE
  2
Standard
  9
$DIMCLRD
 70
    0
  9
$DIMCLRE
 70
    0
  9
$DIMCLRT
 70
    0
  9
$DIMTFAC
 40
1
  9
$DIMGAP
 40
0.025
  9
$DIMJUST
 70
    0
  9
$DIMSD1
 70
    0
  9
$DIMSD2
 70
    0
  9
$DIMTOLJ
 70
    0
  9
$DIMTZIN
 70
    8
  9
$DIMALTZ
 70
    0
  9
$DIMALTTZ
 70
    0
  9
$DIMUPT
 70
    0
  9
$DIMDEC
 70
    2
  9
$DIMTDEC
 70
    2
  9
$DIMALTU
 70
    2
  9
$DIMALTTD
 70
    3
  9
$DIMTXSTY
  7
standard
  9
$DIMAUNIT
 70
    0
  9
$DIMADEC
 70
    0
  9
$DIMALTRND
 40
0
  9
$DIMAZIN
 70
    0
  9
$DIMDSEP
 70
    0
  9
$DIMATFIT
 70
    3
  9
$DIMFRAC
 70
    0
  9
$DIMLDRBLK
  1
STANDARD
  9
$DIMLUNIT
 70
    2
  9
$DIMLWD
 70
   -2
  9
$DIMLWE
 70
   -2
  9
$DIMTMOVE
 70
    0
  9
$DIMFXL
 40
1
  9
$DIMFXLON
 70
    0
  9
$DIMJOGANG
 40
0.7854
  9
$DIMTFILL
 70
    0
  9
$DIMTFILLCLR
 70
    0
  9
$DIMARCSYM
 70
    0
  9
$DIMLTYPE
  6

  9
$DIMLTEX1
  6

  9
$DIMLTEX2
  6

  9
$LUNITS
 70
    2
  9
$LUPREC
 70
    4
  9
$SKETCHINC
 40
1
  9
$FILLETRAD
 40
0
  9
$AUNITS
 70
    0
  9
$AUPREC
 70
    2
  9
$MENU
  1
.
  9
$ELEVATION
 40
0
  9
$PELEVATION
 40
0
  9
$THICKNESS
 40
0
  9
$LIMCHECK
 70
    0
  9
$CHAMFERA
 40
0
  9
$CHAMFERB
 40
0
  9
$CHAMFERC
 40
0
  9
$CHAMFERD
 40
0
  9
$SKPOLY
 70
    0
  9
$USRTIMER
 70
    1
  9
$ANGBASE
 50
0
  9
$ANGDIR
 70
    0
  9
$PDMODE
 70
   34
  9
$PDSIZE
 40
0
  9
$PLINEWID
 40
0
  9
$SPLFRAME
 70
    0
  9
$SPLINETYPE
 70
    2
  9
$SPLINESEGS
 70
    8
  9
$HANDSEED
  5
20000
  9
$SURFTAB1
 70
    6
  9
$SURFTAB2
 70
    6
  9
$SURFTYPE
 70
    6
  9
$SURFU
 70
    6
  9
$SURFV
 70
    6
  9
$UCSBASE
  2

  9
$UCSNAME
  2

  9
$UCSORG
 10
0
 20
0
 30
0
  9
$UCSXDIR
 10
1
 20
0
 30
0
  9
$UCSYDIR
 10
0
 20
1
 30
0
  9
$UCSORTHOREF
  2

  9
$UCSORTHOVIEW
 70
    0
  9
$UCSORGTOP
 10
0
 20
0
 30
0
  9
$UCSORGBOTTOM
 10
0
 20
0
 30
0
  9
$UCSORGLEFT
 10
0
 20
0
 30
0
  9
$UCSORGRIGHT
 10
0
 20
0
 30
0
  9
$UCSORGFRONT
 10
0
 20
0
 30
0
  9
$UCSORGBACK
 10
0
 20
0
 30
0
  9
$PUCSBASE
  2

  9
$PUCSNAME
  2

  9
$PUCSORG
 10
0
 20
0
 30
0
  9
$PUCSXDIR
 10
1
 20
0
 30
0
  9
$PUCSYDIR
 10
0
 20
1
 30
0
  9
$PUCSORTHOREF
  2

  9
$PUCSORTHOVIEW
 70
    0
  9
$PUCSORGTOP
 10
0
 20
0
 30
0
  9
$PUCSORGBOTTOM
 10
0
 20
0
 30
0
  9
$PUCSORGLEFT
 10
0
 20
0
 30
0
  9
$PUCSORGRIGHT
 10
0
 20
0
 30
0
  9
$PUCSORGFRONT
 10
0
 20
0
 30
0
  9
$PUCSORGBACK
 10
0
 20
0
 30
0
  9
$USERI1
 70
    0
  9
$USERI2
 70
    0
  9
$USERI3
 70
    0
  9
$USERI4
 70
    0
  9
$USERI5
 70
    0
  9
$USERR1
 40
0
  9
$USERR2
 40
0
  9
$USERR3
 40
0
  9
$USERR4
 40
0
  9
$USERR5
 40
0
  9
$WORLDVIEW
 70
    1
  9
$SHADEDGE
 70
    3
  9
$SHADEDIF
 70
   70
  9
$TILEMODE
 70
    1
  9
$MAXACTVP
 70
   64
  9
$PINSBASE
 10
0
 20
0
 30
0
  9
$PLIMCHECK
 70
    0
  9
$PEXTMIN
 10
0
 20
0
 30
0
  9
$PEXTMAX
 10
0
 20
0
 30
0
  9
$GRIDMODE
 70
    1
  9
$SNAPSTYLE
 70
    0
  9
$GRIDUNIT
 10
0
 20
0
  9
$PLIMMIN
 10
0
 20
0
  9
$PLIMMAX
 10
7.39648e-14
 20
1.046099e-13
  9
$UNITMODE
 70
    0
  9
$VISRETAIN
 70
    1
  9
$PLINEGEN
 70
    0
  9
$PSLTSCALE
 70
    1
  9
$TREEDEPTH
 70
 3020
  9
$CMLSTYLE
  2
Standard
  9
$CMLJUST
 70
    0
  9
$CMLSCALE
 40
20
  9
$PROXYGRAPHICS
 70
    1
  9
$MEASUREMENT
 70
    1
  9
$CELWEIGHT
370
   -1
  9
$ENDCAPS
280
    0
  9
$JOINSTYLE
280
    0
  9
$LWDISPLAY
290
    0
  9
$INSUNITS
 70
    1
  9
$HYPERLINKBASE
  1

  9
$STYLESHEET
  1

  9
$XEDIT
290
    1
  9
$CEPSNTYPE
380
    0
  9
$PSTYLEMODE
290
    1
  9
$EXTNAMES
290
    1
  9
$PSVPSCALE
 40
0
  9
$OLESTARTUP
290
    0
  9
$SORTENTS
280
  127
  9
$INDEXCTL
280
    0
  9
$HIDETEXT
280
    1
  9
$XCLIPFRAME
290
    0
  9
$HALOGAP
280
    0
  9
$OBSCOLOR
 70
  257
  9
$OBSLTYPE
280
    0
  9
$INTERSECTIONDISPLAY
280
    0
  9
$INTERSECTIONCOLOR
 70
  257
  9
$DIMASSOC
280
    1
  9
$PROJECTNAME
  1

  9
$CAMERADISPLAY
290
    0
  9
$LENSLENGTH
 40
50
  9
$CAMERAHEIGHT
 40
0
  9
$STEPSPERSEC
 40
2
  9
$STEPSIZE
 40
50
  9
$3DDWFPREC
 40
2
  9
$PSOLWIDTH
 40
5
  9
$PSOLHEIGHT
 40
80
  9
$LOFTANG1
 40
1.570796326794897
  9
$LOFTANG2
 40
1.570796326794897
  9
$LOFTMAG1
 40
0
  9
$LOFTMAG2
 40
0
  9
$LOFTPARAM
 70
    7
  9
$LOFTNORMALS
280
    1
  9
$LATITUDE
 40
1
  9
$LONGITUDE
 40
1
  9
$NORTHDIRECTION
 40
0
  9
$TIMEZONE
 70
-8000
  9
$LIGHTGLYPHDISPLAY
280
    1
  9
$TILEMODELIGHTSYNCH
280
    1
  9
$SOLIDHIST
280
    1
  9
$SHOWHIST
280
    1
  9
$DWFFRAME
280
    2
  9
$DGNFRAME
280
    0
  9
$REALWORLDSCALE
290
    1
  9
$INTERFERECOLOR
 62
    1
  9
$CSHADOW
280
    0
  9
$SHADOWPLANELOCATION
 40
0
  0
ENDSEC
  0
SECTION
  2
CLASSES
  0
ENDSEC
  0
SECTION
  2
TABLES
  0
TABLE
  2
VPORT
  5
8
330
0
100
AcDbSymbolTable
 70
    1
  0
VPORT
  5
31
330
2
100
AcDbSymbolTableRecord
100
AcDbViewportTableRecord
  2
*ACTIVE
 70
    0
 10
0
 20
0
 11
1
 21
1
 12
1.805852437572471
 22
1.061202100209532
 13
0
 23
0
 14
10
 24
10
 15
10
 25
10
 16
0
 26
0
 36
1
 17
0
 27
0
 37
0
 40
4.962325729957075
 41
1.756986634264885
 42
50
 43
0
 44
0
 50
0
 51
0
 71
    0
 72
  100
 73
    1
 74
    3
 75
    0
 76
    1
 77
    0
 78
    0
281
    0
 65
    1
110
0
120
0
130
0
111
1
121
0
131
0
112
0
122
1
132
0
 79
    0
146
0
348
10020
 60
    7
 61
    5
292
1
282
    1
141
0
142
0
 63
  250
421
3358443
  0
ENDTAB
  0
TABLE
  2
LTYPE
  5
5
330
0
100
AcDbSymbolTable
 70
    4
  0
LTYPE
  5
14
330
5
100
AcDbSymbolTableRecord
100
AcDbLinetypeTableRecord
  2
ByBlock
 70
    0
  3

 72
   65
 73
    0
 40
0
  0
LTYPE
  5
15
330
5
100
AcDbSymbolTableRecord
100
AcDbLinetypeTableRecord
  2
ByLayer
 70
    0
  3

 72
   65
 73
    0
 40
0
  0
LTYPE
  5
16
330
5
100
AcDbSymbolTableRecord
100
AcDbLinetypeTableRecord
  2
Continuous
 70
    0
  3
Solid line
 72
   65
 73
    0
 40
0
  0
LTYPE
  5
32
330
5
100
AcDbSymbolTableRecord
100
AcDbLinetypeTableRecord
  2
DOT
 70
    0
  3
Dot . . . . . . . . . . . . . . . . . . . . . .
 72
   65
 73
    2
 40
6.35
 49
0
 74
    0
 49
-6.35
 74
    0
  0
LTYPE
  5
33
330
5
100
AcDbSymbolTableRecord
100
AcDbLinetypeTableRecord
  2
DOTTINY
 70
    0
  3
Dot (.15x) .....................................
 72
   65
 73
    2
 40
0.9525
 49
0
 74
    0
 49
-0.9525
 74
    0
  0
LTYPE
  5
34
330
5
100
AcDbSymbolTableRecord
100
AcDbLinetypeTableRecord
  2
DOT2
 70
    0
  3
Dot (.5x) .....................................
 72
   65
 73
    2
 40
3.175
 49
0
 74
    0
 49
-3.175
 74
    0
  0
LTYPE
  5
35
330
5
100
AcDbSymbolTableRecord
100
AcDbLinetypeTableRecord
  2
DOTX2
 70
    0
  3
Dot (2x) .  .  .  .  .  .  .  .  .  .  .  .  .
 72
   65
 73
    2
 40
12.7
 49
0
 74
    0
 49
-12.7
 74
    0
  0
LTYPE
  5
36
330
5
100
AcDbSymbolTableRecord
100
AcDbLinetypeTableRecord
  2
DASHED
 70
    0
  3
Dashed _ _ _ _ _ _ _ _ _ _ _ _ _ _ _ _ _
 72
   65
 73
    2
 40
19.05
 49
12.7
 74
    0
 49
-6.35
 74
    0
  0
LTYPE
  5
37
330
5
100
AcDbSymbolTableRecord
100
AcDbLinetypeTableRecord
  2
DASHEDTINY
 70
    0
  3
Dashed (.15x) _ _ _ _ _ _ _ _ _ _ _ _ _ _ _ _ _
 72
   65
 73
    2
 40
2.8575
 49
1.905
 74
    0
 49
-0.9525
 74
    0
  0
LTYPE
  5
38
330
5
100
AcDbSymbolTableRecord
100
AcDbLinetypeTableRecord
  2
DASHED2
 70
    0
  3
Dashed (.5x) _ _ _ _ _ _ _ _ _ _ _ _ _ _ _ _ _
 72
   65
 73
    2
 40
9.524999999999999
 49
6.35
 74
    0
 49
-3.175
 74
    0
  0
LTYPE
  5
39
330
5
100
AcDbSymbolTableRecord
100
AcDbLinetypeTableRecord
  2
DASHEDX2
 70
    0
  3
Dashed (2x) ____  ____  ____  ____  ____  ___
 72
   65
 73
    2
 40
38.09999999999999
 49
25.4
 74
    0
 49
-12.7
 74
    0
  0
LTYPE
  5
3A
330
5
100
AcDbSymbolTableRecord
100
AcDbLinetypeTableRecord
  2
DASHDOT
 70
    0
  3
Dash dot __ . __ . __ . __ . __ . __ . __ . __
 72
   65
 73
    4
 40
25.4
 49
12.7
 74
    0
 49
-6.35
 74
    0
 49
0
 74
    0
 49
-6.35
 74
    0
  0
LTYPE
  5
3B
330
5
100
AcDbSymbolTableRecord
100
AcDbLinetypeTableRecord
  2
DASHDOTTINY
 70
    0
  3
Dash dot (.15x) _._._._._._._._._._._._._._._.
 72
   65
 73
    4
 40
3.81
 49
1.905
 74
    0
 49
-0.9525
 74
    0
 49
0
 74
    0
 49
-0.9525
 74
    0
  0
LTYPE
  5
3C
330
5
100
AcDbSymbolTableRecord
100
AcDbLinetypeTableRecord
  2
DASHDOT2
 70
    0
  3
Dash dot (.5x) _._._._._._._._._._._._._._._.
 72
   65
 73
    4
 40
12.7
 49
6.35
 74
    0
 49
-3.175
 74
    0
 49
0
 74
    0
 49
-3.175
 74
    0
  0
LTYPE
  5
3D
330
5
100
AcDbSymbolTableRecord
100
AcDbLinetypeTableRecord
  2
DASHDOTX2
 70
    0
  3
Dash dot (2x) ____  .  ____  .  ____  .  ___
 72
   65
 73
    4
 40
50.8
 49
25.4
 74
    0
 49
-12.7
 74
    0
 49
0
 74
    0
 49
-12.7
 74
    0
  0
LTYPE
  5
3E
330
5
100
AcDbSymbolTableRecord
100
AcDbLinetypeTableRecord
  2
DIVIDE
 70
    0
  3
Divide ____ . . ____ . . ____ . . ____ . . ____
 72
   65
 73
    6
 40
31.75
 49
12.7
 74
    0
 49
-6.35
 74
    0
 49
0
 74
    0
 49
-6.35
 74
    0
 49
0
 74
    0
 49
-6.35
 74
    0
  0
LTYPE
  5
3F
330
5
100
AcDbSymbolTableRecord
100
AcDbLinetypeTableRecord
  2
DIVIDETINY
 70
    0
  3
Divide (.15x) __..__..__..__..__..__..__..__.._
 72
   65
 73
    6
 40
4.7625
 49
1.905
 74
    0
 49
-0.9525
 74
    0
 49
0
 74
    0
 49
-0.9525
 74
    0
 49
0
 74
    0
 49
-0.9525
 74
    0
  0
LTYPE
  5
40
330
5
100
AcDbSymbolTableRecord
100
AcDbLinetypeTableRecord
  2
DIVIDE2
 70
    0
  3
Divide (.5x) __..__..__..__..__..__..__..__.._
 72
   65
 73
    6
 40
15.875
 49
6.35
 74
    0
 49
-3.175
 74
    0
 49
0
 74
    0
 49
-3.175
 74
    0
 49
0
 74
    0
 49
-3.175
 74
    0
  0
LTYPE
  5
41
330
5
100
AcDbSymbolTableRecord
100
AcDbLinetypeTableRecord
  2
DIVIDEX2
 70
    0
  3
Divide (2x) ________  .  .  ________  .  .  _
 72
   65
 73
    6
 40
63.5
 49
25.4
 74
    0
 49
-12.7
 74
    0
 49
0
 74
    0
 49
-12.7
 74
    0
 49
0
 74
    0
 49
-12.7
 74
    0
  0
LTYPE
  5
42
330
5
100
AcDbSymbolTableRecord
100
AcDbLinetypeTableRecord
  2
BORDER
 70
    0
  3
Border __ __ . __ __ . __ __ . __ __ . __ __ .
 72
   65
 73
    6
 40
44.45
 49
12.7
 74
    0
 49
-6.35
 74
    0
 49
12.7
 74
    0
 49
-6.35
 74
    0
 49
0
 74
    0
 49
-6.35
 74
    0
  0
LTYPE
  5
43
330
5
100
AcDbSymbolTableRecord
100
AcDbLinetypeTableRecord
  2
BORDERTINY
 70
    0
  3
Border (.15x) __.__.__.__.__.__.__.__.__.__.__.
 72
   65
 73
    6
 40
6.6675
 49
1.905
 74
    0
 49
-0.9525
 74
    0
 49
1.905
 74
    0
 49
-0.9525
 74
    0
 49
0
 74
    0
 49
-0.9525
 74
    0
  0
LTYPE
  5
44
330
5
100
AcDbSymbolTableRecord
100
AcDbLinetypeTableRecord
  2
BORDER2
 70
    0
  3
Border (.5x) __.__.__.__.__.__.__.__.__.__.__.
 72
   65
 73
    6
 40
22.225
 49
6.35
 74
    0
 49
-3.175
 74
    0
 49
6.35
 74
    0
 49
-3.175
 74
    0
 49
0
 74
    0
 49
-3.175
 74
    0
  0
LTYPE
  5
45
330
5
100
AcDbSymbolTableRecord
100
AcDbLinetypeTableRecord
  2
BORDERX2
 70
    0
  3
Border (2x) ____  ____  .  ____  ____  .  ___
 72
   65
 73
    6
 40
88.89999999999999
 49
25.4
 74
    0
 49
-12.7
 74
    0
 49
25.4
 74
    0
 49
-12.7
 74
    0
 49
0
 74
    0
 49
-12.7
 74
    0
  0
LTYPE
  5
46
330
5
100
AcDbSymbolTableRecord
100
AcDbLinetypeTableRecord
  2
CENTER
 70
    0
  3
Center ____ _ ____ _ ____ _ ____ _ ____ _ ____
 72
   65
 73
    4
 40
50.8
 49
31.75
 74
    0
 49
-6.35
 74
    0
 49
6.35
 74
    0
 49
-6.35
 74
    0
  0
LTYPE
  5
47
330
5
100
AcDbSymbolTableRecord
100
AcDbLinetypeTableRecord
  2
CENTERTINY
 70
    0
  3
Center (.15x) ___ _ ___ _ ___ _ ___ _ ___ _ ___
 72
   65
 73
    4
 40
7.619999999999999
 49
4.7625
 74
    0
 49
-0.9525
 74
    0
 49
0.9525
 74
    0
 49
-0.9525
 74
    0
  0
LTYPE
  5
48
330
5
100
AcDbSymbolTableRecord
100
AcDbLinetypeTableRecord
  2
CENTER2
 70
    0
  3
Center (.5x) ___ _ ___ _ ___ _ ___ _ ___ _ ___
 72
   65
 73
    4
 40
28.575
 49
19.05
 74
    0
 49
-3.175
 74
    0
 49
3.175
 74
    0
 49
-3.175
 74
    0
  0
LTYPE
  5
49
330
5
100
AcDbSymbolTableRecord
100
AcDbLinetypeTableRecord
  2
CENTERX2
 70
    0
  3
Center (2x) ________  __  ________  __  _____
 72
   65
 73
    4
 40
101.6
 49
63.5
 74
    0
 49
-12.7
 74
    0
 49
12.7
 74
    0
 49
-12.7
 74
    0
  0
ENDTAB
  0
TABLE
  2
LAYER
  5
2
330
0
100
AcDbSymbolTable
 70
    1
  0
LAYER
  5
10
330
2
100
AcDbSymbolTableRecord
100
AcDbLayerTableRecord
  2
0
 70
    0
 62
    7
  6
CONTINUOUS
370
    0
390
F
  0
LAYER
  5
4A
330
2
100
AcDbSymbolTableRecord
100
AcDbLayerTableRecord
  2
adafruit_term_boundary
 70
    0
 62
   53
  6
CONTINUOUS
370
   -3
390
F
  0
LAYER
  5
4B
330
2
100
AcDbSymbolTableRecord
100
AcDbLayerTableRecord
  2
adafruit_term_feather
 70
    0
 62
    2
  6
CONTINUOUS
370
   -3
390
F
  0
LAYER
  5
4C
330
2
100
AcDbSymbolTableRecord
100
AcDbLayerTableRecord
  2
adafruit_term_holes
 70
    0
 62
    3
  6
CONTINUOUS
370
   -3
390
F
  0
LAYER
  5
4D
330
2
100
AcDbSymbolTableRecord
100
AcDbLayerTableRecord
  2
adafruit_term_switch
 70
    0
 62
    6
  6
CONTINUOUS
370
    0
390
F
  0
LAYER
  5
4E
330
2
100
AcDbSymbolTableRecord
100
AcDbLayerTableRecord
  2
adafruit_term_usb_label
 70
    0
 62
    5
  6
CONTINUOUS
370
    0
390
F
  0
ENDTAB
  0
TABLE
  2
STYLE
  5
3
330
0
100
AcDbSymbolTable
 70
    3
  0
STYLE
  5
4F
330
2
100
AcDbSymbolTableRecord
100
AcDbTextStyleTableRecord
  2
Standard
 70
    0
 40
0
 41
1
 50
0
 71
    0
 42
1
  3
txt
  4

  0
ENDTAB
  0
TABLE
  2
VIEW
  5
6
330
0
100
AcDbSymbolTable
 70
    0
  0
ENDTAB
  0
TABLE
  2
UCS
  5
7
330
0
100
AcDbSymbolTable
 70
    0
  0
ENDTAB
  0
TABLE
  2
APPID
  5
9
330
0
100
AcDbSymbolTable
 70
    1
  0
APPID
  5
12
330
9
100
AcDbSymbolTableRecord
100
AcDbRegAppTableRecord
  2
ACAD
 70
    0
  0
APPID
  5
50
330
9
100
AcDbSymbolTableRecord
100
AcDbRegAppTableRecord
  2
LibreCad
 70
    0
  0
ENDTAB
  0
TABLE
  2
DIMSTYLE
  5
A
330
0
100
AcDbSymbolTable
 70
    1
100
AcDbDimStyleTable
 71
    1
  0
DIMSTYLE
105
51
330
A
100
AcDbSymbolTableRecord
100
AcDbDimStyleTableRecord
  2
Standard
 70
    0
 40
0.1
 41
1
 42
0.625
 43
0.38
 44
0.05
 45
0
 46
0
 47
0
 48
0
 49
1
140
1
141
0.09
142
0
143
25.4
144
1
145
0
146
1
147
0.025
148
0
 71
    0
 72
    0
 73
    0
 74
    1
 75
    0
 76
    0
 77
    0
 78
    8
 79
    0
170
    0
171
    2
172
    0
173
    0
174
    0
175
    0
176
    0
177
    0
178
    0
179
    0
271
    2
272
    4
273
    2
274
    2
275
    0
276
    0
277
    2
278
    0
279
    0
280
    0
281
    0
282
    0
283
    1
284
    0
285
    0
286
    0
288
    0
289
    3
340
standard
341

371
   -2
372
   -2
  0
ENDTAB
  0
TABLE
  2
BLOCK_RECORD
  5
1
330
0
100
AcDbSymbolTable
 70
    2
  0
BLOCK_RECORD
  5
1F
330
1
100
AcDbSymbolTableRecord
100
AcDbBlockTableRecord
  2
*Model_Space
 70
    0
280
    1
281
    0
  0
BLOCK_RECORD
  5
1E
330
1
100
AcDbSymbolTableRecord
100
AcDbBlockTableRecord
  2
*Paper_Space
 70
    0
280
    1
281
    0
  0
ENDTAB
  0
ENDSEC
  0
SECTION
  2
BLOCKS
  0
BLOCK
  5
20
330
1F
100
AcDbEntity
  8
0
100
AcDbBlockBegin
  2
*Model_Space
 70
    0
 10
0
 20
0
 30
0
  3
*Model_Space
  1

  0
ENDBLK
  5
21
330
1F
100
AcDbEntity
  8
0
100
AcDbBlockEnd
  0
BLOCK
  5
1C
330
1B
100
AcDbEntity
  8
0
100
AcDbBlockBegin
  2
*Paper_Space
 70
    0
 10
0
 20
0
 30
0
  3
*Paper_Space
  1

  0
ENDBLK
  5
1D
330
1F
100
AcDbEntity
  8
0
100
AcDbBlockEnd
  0
ENDSEC
  0
SECTION
  2
ENTITIES
  0
LINE
  5
52
100
AcDbEntity
  8
adafruit_term_boundary
  6
ByLayer
 62
  256
370
   -1
100
AcDbLine
 10
-1.15
 20
0.9999999999999999
 11
1.15
 21
0.9999999999999999
  0
ARC
  5
53
100
AcDbEntity
  8
adafruit_term_boundary
  6
ByLayer
 62
  256
370
   -1
100
AcDbCircle
 10
1.15
 20
0.8999999999999999
 40
0.1
100
AcDbArc
 50
0
 51
90
  0
LINE
  5
54
100
AcDbEntity
  8
adafruit_term_boundary
  6
ByLayer
 62
  256
370
   -1
100
AcDbLine
 10
1.25
 20
0.8999999999999999
 11
1.25
 21
-0.8999999999999999
  0
ARC
  5
55
100
AcDbEntity
  8
adafruit_term_boundary
  6
ByLayer
 62
  256
370
   -1
100
AcDbCircle
 10
1.15
 20
-0.8999999999999999
 40
0.1
100
AcDbArc
 50
270
 51
0
  0
LINE
  5
56
100
AcDbEntity
  8
adafruit_term_boundary
  6
ByLayer
 62
  256
370
   -1
100
AcDbLine
 10
1.15
 20
-0.9999999999999999
 11
-1.15
 21
-0.9999999999999999
  0
ARC
  5
57
100
AcDbEntity
  8
adafruit_term_boundary
  6
ByLayer
 62
  256
370
   -1
100
AcDbCircle
 10
-1.15
 20
-0.8999999999999999
 40
0.1
100
AcDbArc
 50
180
 51
270
  0
LINE
  5
58
100
AcDbEntity
  8
adafruit_term_boundary
  6
ByLayer
 62
  256
370
   -1
100
AcDbLine
 10
-1.25
 20
-0.8999999999999999
 11
-1.25
 21
0.8999999999999999
  0
ARC
  5
59
100
AcDbEntity
  8
adafruit_term_boundary
  6
ByLayer
 62
  256
370
   -1
100
AcDbCircle
 10
-1.15
 20
0.8999999999999999
 40
0.1
100
AcDbArc
 50
90
 51
180
  0
LINE
  5
5A
100
AcDbEntity
  8
adafruit_term_feather
  6
ByLayer
 62
  256
370
   -1
100
AcDbLine
 10
-0.8999999999999999
 20
-0.45
 11
0.8999999999999999
 21
-0.45
  0
ARC
  5
5B
100
AcDbEntity
  8
adafruit_term_feather
  6
ByLayer
 62
  256
370
   -1
100
AcDbCircle
 10
0.8999999999999999
 20
-0.35
 40
0.1
100
AcDbArc
 50
270
 51
0
  0
LINE
  5
5C
100
AcDbEntity
  8
adafruit_term_feather
  6
ByLayer
 62
  256
370
   -1
100
AcDbLine
 10
0.9999999999999999
 20
-0.35
 11
0.9999999999999999
 21
0.35
  0
ARC
  5
5D
100
AcDbEntity
  8
adafruit_term_feather
  6
ByLayer
 62
  256
370
   -1
100
AcDbCircle
 10
0.8999999999999999
 20
0.35
 40
0.1
100
AcDbArc
 50
0
 51
90
  0
LINE
  5
5E
100
AcDbEntity
  8
adafruit_term_feather
  6
ByLayer
 62
  256
370
   -1
100
AcDbLine
 10
0.8999999999999999
 20
0.45
 11
-0.8999999999999999
 21
0.45
  0
ARC
  5
5F
100
AcDbEntity
  8
adafruit_term_feather
  6
ByLayer
 62
  256
370
   -1
100
AcDbCircle
 10
-0.8999999999999999
 20
0.35
 40
0.1
100
AcDbArc
 50
90
 51
180
  0
LINE
  5
60
100
AcDbEntity
  8
adafruit_term_feather
  6
ByLayer
 62
  256
370
   -1
100
AcDbLine
 10
-0.9999999999999999
 20
0.35
 11
-0.9999999999999999
 21
0.09
  0
LINE
  5
61
100
AcDbEntity
  8
adafruit_term_feather
  6
ByLayer
 62
  256
370
   -1
100
AcDbLine
 10
-0.9999999999999999
 20
0.09
 11
-0.98
 21
0.07000000000000001
  0
LINE
  5
62
100
AcDbEntity
  8
adafruit_term_feather
  6
ByLayer
 62
  256
370
   -1
100
AcDbLine
 10
-0.98
 20
0.07000000000000001
 11
-0.98
 21
-0.07000000000000001
  0
LINE
  5
63
100
AcDbEntity
  8
adafruit_term_feather
  6
ByLayer
 62
  256
370
   -1
100
AcDbLine
 10
-0.98
 20
-0.07000000000000001
 11
-0.9999999999999999
 21
-0.09
  0
LINE
  5
64
100
AcDbEntity
  8
adafruit_term_feather
  6
ByLayer
 62
  256
370
   -1
100
AcDbLine
 10
-0.9999999999999999
 20
-0.09
 11
-0.9999999999999999
 21
-0.35
  0
ARC
  5
65
100
AcDbEntity
  8
adafruit_term_feather
  6
ByLayer
 62
  256
370
   -1
100
AcDbCircle
 10
-0.8999999999999999
 20
-0.35
 40
0.1
100
AcDbArc
 50
180
 51
270
  0
LINE
  5
66
100
AcDbEntity
  8
adafruit_term_switch
  6
ByLayer
 62
  256
370
   -1
100
AcDbLine
 10
1.093948818897638
 20
-0.02755905511811023
 11
1.093948818897638
 21
-0.1968503937007874
  0
ARC
  5
67
100
AcDbEntity
  8
adafruit_term_feather
  6
ByLayer
 62
  256
370
   -1
100
AcDbCircle
 10
0.8999999999999999
 20
0.35
 40
0.1
100
AcDbArc
 50
0
 51
90
  0
LINE
  5
68
100
AcDbEntity
  8
0
  6
ByLayer
 62
  256
370
   -1
100
AcDbLine
 10
-0.8999999999999999
 20
0.45
 11
0.8999999999999999
 21
0.45
  0
LINE
  5
69
100
AcDbEntity
  8
0
  6
ByLayer
 62
  256
370
   -1
100
AcDbLine
 10
0.9999999999999999
 20
0.35
 11
0.9999999999999999
 21
-0.35
  0
ARC
  5
6A
100
AcDbEntity
  8
0
  6
ByLayer
 62
  256
370
   -1
100
AcDbCircle
 10
0.8999976846933848
 20
-0.3499976846933849
 40
0.1000023153334177
100
AcDbArc
 50
270.0013265422596
 51
359.9986734577406
  0
LINE
  5
6B
100
AcDbEntity
  8
0
  6
ByLayer
 62
  256
370
   -1
100
AcDbLine
 10
0.8999999999999999
 20
-0.45
 11
-0.8999999999999999
 21
-0.45
  0
ARC
  5
6C
100
AcDbEntity
  8
0
  6
ByLayer
 62
  256
370
   -1
100
AcDbCircle
 10
-0.8999976846933848
 20
-0.349997684693385
 40
0.1000023153334177
100
AcDbArc
 50
180.0013265422594
 51
269.9986734577404
  0
ARC
  5
6D
100
AcDbEntity
  8
0
  6
ByLayer
 62
  256
370
   -1
100
AcDbCircle
 10
-0.8999976846933848
 20
0.3499976846933849
 40
0.1000023153334177
100
AcDbArc
 50
90.00132654225955
 51
179.9986734577406
  0
LWPOLYLINE
  5
6E
100
AcDbEntity
  8
adafruit_term_holes
  6
ByLayer
 62
  256
370
   -1
100
AcDbPolyline
 90
    3
 70
    0
 43
0
 10
-1.15
 20
0.3604724409448819
 42
0.9999999999999999
 10
-1.15
 20
0.4395275590551181
 42
0.9999999999999999
 10
-1.15
 20
0.3604724409448819
 42
0.9999999999999999
  0
LWPOLYLINE
  5
6F
100
AcDbEntity
  8
adafruit_term_holes
  6
ByLayer
 62
  256
370
   -1
100
AcDbPolyline
 90
    3
 70
    0
 43
0
 10
-1.15
 20
0.3604724409448819
 42
0.9999999999999999
 10
-1.15
 20
0.4395275590551181
 42
0.9999999999999999
 10
-1.15
 20
0.3604724409448819
 42
0.9999999999999999
  0
LWPOLYLINE
  5
70
100
AcDbEntity
  8
adafruit_term_holes
  6
ByLayer
 62
  256
370
   -1
100
AcDbPolyline
 90
    3
 70
    0
 43
0
 10
-1.15
 20
-0.4395275590551181
 42
0.9999999999999999
 10
-1.15
 20
-0.3604724409448819
 42
0.9999999999999999
 10
-1.15
 20
-0.4395275590551181
 42
0.9999999999999999
  0
LWPOLYLINE
  5
71
100
AcDbEntity
  8
adafruit_term_holes
  6
ByLayer
 62
  256
370
   -1
100
AcDbPolyline
 90
    3
 70
    0
 43
0
 10
-1.15
 20
-0.4395275590551181
 42
0.9999999999999999
 10
-1.15
 20
-0.3604724409448819
 42
0.9999999999999999
 10
-1.15
 20
-0.4395275590551181
 42
0.9999999999999999
  0
LWPOLYLINE
  5
72
100
AcDbEntity
  8
adafruit_term_holes
  6
ByLayer
 62
  256
370
   -1
100
AcDbPolyline
 90
    3
 70
    0
 43
0
 10
1.15
 20
-0.4395275590551181
 42
0.9999999999999999
 10
1.15
 20
-0.3604724409448819
 42
0.9999999999999999
 10
1.15
 20
-0.4395275590551181
 42
0.9999999999999999
  0
LWPOLYLINE
  5
73
100
AcDbEntity
  8
adafruit_term_holes
  6
ByLayer
 62
  256
370
   -1
100
AcDbPolyline
 90
    3
 70
    0
 43
0
 10
1.15
 20
-0.4395275590551181
 42
0.9999999999999999
 10
1.15
 20
-0.3604724409448819
 42
0.9999999999999999
 10
1.15
 20
-0.4395275590551181
 42
0.9999999999999999
  0
LWPOLYLINE
  5
74
100
AcDbEntity
  8
adafruit_term_holes
  6
ByLayer
 62
  256
370
   -1
100
AcDbPolyline
 90
    3
 70
    0
 43
0
 10
1.15
 20
0.3604724409448819
 42
0.9999999999999999
 10
1.15
 20
0.4395275590551181
 42
0.9999999999999999
 10
1.15
 20
0.3604724409448819
 42
0.9999999999999999
  0
ARC
  5
75
100
AcDbEntity
  8
0
  6
ByLayer
 62
  256
370
   -1
100
AcDbCircle
 10
0.8999976846933848
 20
0.3499976846933849
 40
0.1000023153334177
100
AcDbArc
 50
0.001326542259460984
 51
89.99867345774047
  0
LINE
  5
76
100
AcDbEntity
  8
adafruit_term_switch
  6
ByLayer
 62
  256
370
   -1
100
AcDbLine
 10
1.202468503937008
 20
-0.2599842519685039
 11
1.202468503937008
 21
-0.2716614173228347
  0
ARC
  5
77
100
AcDbEntity
  8
adafruit_term_switch
  6
ByLayer
 62
  256
370
   -1
100
AcDbCircle
 10
1.202470472440945
 20
-0.2716614173228347
 40
0.001249999999999973
100
AcDbArc
 50
180
 51
0
  0
ARC
  5
78
100
AcDbEntity
  8
adafruit_term_switch
  6
ByLayer
 62
  256
370
   -1
100
AcDbCircle
 10
1.202470472440945
 20
-0.2599842519685039
 40
0.001249999999999973
100
AcDbArc
 50
0
 51
180
  0
LINE
  5
79
100
AcDbEntity
  8
adafruit_term_switch
  6
ByLayer
 62
  256
370
   -1
100
AcDbLine
 10
1.202468503937008
 20
-0.2716614173228347
 11
1.208307086614173
 21
-0.2775
  0
ARC
  5
7A
100
AcDbEntity
  8
adafruit_term_switch
  6
ByLayer
 62
  256
370
   -1
100
AcDbCircle
 10
1.20830905511811
 20
-0.2775
 40
0.001251357066064288
100
AcDbArc
 50
225.0637327651677
 51
45.06373276516049
  0
ARC
  5
7B
100
AcDbEntity
  8
adafruit_term_switch
  6
ByLayer
 62
  256
370
   -1
100
AcDbCircle
 10
1.202470472440945
 20
-0.2716633858267717
 40
0.001249964349420229
100
AcDbArc
 50
45.00000000000361
 51
225.0000000000036
  0
LINE
  5
7C
100
AcDbEntity
  8
adafruit_term_switch
  6
ByLayer
 62
  256
370
   -1
100
AcDbLine
 10
1.208307086614173
 20
-0.2775
 11
1.231661417322835
 21
-0.2775
  0
ARC
  5
7D
100
AcDbEntity
  8
adafruit_term_switch
  6
ByLayer
 62
  256
370
   -1
100
AcDbCircle
 10
1.231661417322835
 20
-0.277501968503937
 40
0.001250000000000029
100
AcDbArc
 50
270
 51
90
  0
ARC
  5
7E
100
AcDbEntity
  8
adafruit_term_switch
  6
ByLayer
 62
  256
370
   -1
100
AcDbCircle
 10
1.208307086614173
 20
-0.277501968503937
 40
0.001250000000000029
100
AcDbArc
 50
90
 51
270
  0
LINE
  5
7F
100
AcDbEntity
  8
adafruit_term_switch
  6
ByLayer
 62
  256
370
   -1
100
AcDbLine
 10
1.231661417322835
 20
-0.2775
 11
1.2375
 21
-0.2716614173228347
  0
ARC
  5
80
100
AcDbEntity
  8
adafruit_term_switch
  6
ByLayer
 62
  256
370
   -1
100
AcDbCircle
 10
1.237499999999999
 20
-0.2716633858267716
 40
0.001251357066064307
100
AcDbArc
 50
315.0637327651641
 51
135.0637327651551
  0
ARC
  5
81
100
AcDbEntity
  8
adafruit_term_switch
  6
ByLayer
 62
  256
370
   -1
100
AcDbCircle
 10
1.231663385826772
 20
-0.2775
 40
0.001251357066064288
100
AcDbArc
 50
134.9362672348395
 51
314.9362672348323
  0
LINE
  5
82
100
AcDbEntity
  8
adafruit_term_switch
  6
ByLayer
 62
  256
370
   -1
100
AcDbLine
 10
1.2375
 20
-0.2716614173228347
 11
1.2375
 21
-0.2599842519685039
  0
ARC
  5
83
100
AcDbEntity
  8
adafruit_term_switch
  6
ByLayer
 62
  256
370
   -1
100
AcDbCircle
 10
1.2375
 20
-0.2599842519685039
 40
0.001248031496063007
100
AcDbArc
 50
0
 51
180
  0
ARC
  5
84
100
AcDbEntity
  8
adafruit_term_switch
  6
ByLayer
 62
  256
370
   -1
100
AcDbCircle
 10
1.2375
 20
-0.2716614173228347
 40
0.001248031496063007
100
AcDbArc
 50
180
 51
0
  0
LINE
  5
85
100
AcDbEntity
  8
adafruit_term_switch
  6
ByLayer
 62
  256
370
   -1
100
AcDbLine
 10
1.2375
 20
-0.2599842519685039
 11
1.231661417322835
 21
-0.2541456692913386
  0
ARC
  5
86
100
AcDbEntity
  8
adafruit_term_switch
  6
ByLayer
 62
  256
370
   -1
100
AcDbCircle
 10
1.231663385826772
 20
-0.2541476377952756
 40
0.001249964349420288
100
AcDbArc
 50
45.00000000000361
 51
224.9999999999946
  0
ARC
  5
87
100
AcDbEntity
  8
adafruit_term_switch
  6
ByLayer
 62
  256
370
   -1
100
AcDbCircle
 10
1.237499999999999
 20
-0.259986220472441
 40
0.001251357066064307
100
AcDbArc
 50
224.9362672348431
 51
44.93626723483771
  0
LINE
  5
88
100
AcDbEntity
  8
adafruit_term_switch
  6
ByLayer
 62
  256
370
   -1
100
AcDbLine
 10
1.231661417322835
 20
-0.2541456692913386
 11
1.208307086614173
 21
-0.2541456692913386
  0
ARC
  5
89
100
AcDbEntity
  8
adafruit_term_switch
  6
ByLayer
 62
  256
370
   -1
100
AcDbCircle
 10
1.208307086614173
 20
-0.2541476377952756
 40
0.001250000000000001
100
AcDbArc
 50
90
 51
270
  0
ARC
  5
8A
100
AcDbEntity
  8
adafruit_term_switch
  6
ByLayer
 62
  256
370
   -1
100
AcDbCircle
 10
1.231661417322835
 20
-0.2541476377952756
 40
0.001250000000000001
100
AcDbArc
 50
270
 51
90
  0
LINE
  5
8B
100
AcDbEntity
  8
adafruit_term_switch
  6
ByLayer
 62
  256
370
   -1
100
AcDbLine
 10
1.208307086614173
 20
-0.2541456692913386
 11
1.202468503937008
 21
-0.2599842519685039
  0
ARC
  5
8C
100
AcDbEntity
  8
adafruit_term_switch
  6
ByLayer
 62
  256
370
   -1
100
AcDbCircle
 10
1.202470472440945
 20
-0.2599862204724409
 40
0.001249964349420229
100
AcDbArc
 50
134.9999999999964
 51
314.9999999999964
  0
ARC
  5
8D
100
AcDbEntity
  8
adafruit_term_switch
  6
ByLayer
 62
  256
370
   -1
100
AcDbCircle
 10
1.20830905511811
 20
-0.2541476377952756
 40
0.001249964349420288
100
AcDbArc
 50
315.0000000000054
 51
134.9999999999964
  0
LINE
  5
8E
100
AcDbEntity
  8
adafruit_term_switch
  6
ByLayer
 62
  256
370
   -1
100
AcDbLine
 10
1.2375
 20
-0.2406692913385827
 11
1.202468503937008
 21
-0.2406692913385827
  0
ARC
  5
8F
100
AcDbEntity
  8
adafruit_term_switch
  6
ByLayer
 62
  256
370
   -1
100
AcDbCircle
 10
1.202468503937008
 20
-0.2406673228346456
 40
0.001250000000000057
100
AcDbArc
 50
90
 51
270
  0
ARC
  5
90
100
AcDbEntity
  8
adafruit_term_switch
  6
ByLayer
 62
  256
370
   -1
100
AcDbCircle
 10
1.2375
 20
-0.2406673228346456
 40
0.001250000000000057
100
AcDbArc
 50
270
 51
90
  0
LINE
  5
91
100
AcDbEntity
  8
adafruit_term_switch
  6
ByLayer
 62
  256
370
   -1
100
AcDbLine
 10
1.202468503937008
 20
-0.2406692913385827
 11
1.2375
 21
-0.2173149606299213
  0
ARC
  5
92
100
AcDbEntity
  8
adafruit_term_switch
  6
ByLayer
 62
  256
370
   -1
100
AcDbCircle
 10
1.2375
 20
-0.2173149606299212
 40
0.001249167371027014
100
AcDbArc
 50
303.6900675259932
 51
123.690067525984
  0
ARC
  5
93
100
AcDbEntity
  8
adafruit_term_switch
  6
ByLayer
 62
  256
370
   -1
100
AcDbCircle
 10
1.202470472440945
 20
-0.2406692913385827
 40
0.001250260373403175
100
AcDbArc
 50
123.7651274562041
 51
303.7651274562132
  0
LINE
  5
94
100
AcDbEntity
  8
adafruit_term_switch
  6
ByLayer
 62
  256
370
   -1
100
AcDbLine
 10
1.2375
 20
-0.2173149606299213
 11
1.202468503937008
 21
-0.2173149606299213
  0
ARC
  5
95
100
AcDbEntity
  8
adafruit_term_switch
  6
ByLayer
 62
  256
370
   -1
100
AcDbCircle
 10
1.202468503937008
 20
-0.2173169291338582
 40
0.001250000000000057
100
AcDbArc
 50
90
 51
270
  0
ARC
  5
96
100
AcDbEntity
  8
adafruit_term_switch
  6
ByLayer
 62
  256
370
   -1
100
AcDbCircle
 10
1.2375
 20
-0.2173169291338582
 40
0.001250000000000057
100
AcDbArc
 50
270
 51
90
  0
LINE
  5
97
100
AcDbEntity
  8
adafruit_term_switch
  6
ByLayer
 62
  256
370
   -1
100
AcDbLine
 10
1.202468503937008
 20
0.230015748031496
 11
1.202468503937008
 21
0.2183385826771654
  0
ARC
  5
98
100
AcDbEntity
  8
adafruit_term_switch
  6
ByLayer
 62
  256
370
   -1
100
AcDbCircle
 10
1.202470472440945
 20
0.2183385826771654
 40
0.001249999999999973
100
AcDbArc
 50
180
 51
0
  0
ARC
  5
99
100
AcDbEntity
  8
adafruit_term_switch
  6
ByLayer
 62
  256
370
   -1
100
AcDbCircle
 10
1.202470472440945
 20
0.230015748031496
 40
0.001249999999999973
100
AcDbArc
 50
0
 51
180
  0
LINE
  5
9A
100
AcDbEntity
  8
adafruit_term_switch
  6
ByLayer
 62
  256
370
   -1
100
AcDbLine
 10
1.202468503937008
 20
0.2183385826771654
 11
1.208307086614173
 21
0.2125
  0
ARC
  5
9B
100
AcDbEntity
  8
adafruit_term_switch
  6
ByLayer
 62
  256
370
   -1
100
AcDbCircle
 10
1.20830905511811
 20
0.2125
 40
0.001251357066064278
100
AcDbArc
 50
225.0637327651677
 51
45.0637327651596
  0
ARC
  5
9C
100
AcDbEntity
  8
adafruit_term_switch
  6
ByLayer
 62
  256
370
   -1
100
AcDbCircle
 10
1.202470472440945
 20
0.2183366141732282
 40
0.001249964349420249
100
AcDbArc
 50
45.0000000000045
 51
225.0000000000045
  0
LINE
  5
9D
100
AcDbEntity
  8
adafruit_term_switch
  6
ByLayer
 62
  256
370
   -1
100
AcDbLine
 10
1.208307086614173
 20
0.2125
 11
1.231661417322835
 21
0.2125
  0
ARC
  5
9E
100
AcDbEntity
  8
adafruit_term_switch
  6
ByLayer
 62
  256
370
   -1
100
AcDbCircle
 10
1.231661417322835
 20
0.2125
 40
0.001248031496063007
100
AcDbArc
 50
270
 51
90
  0
ARC
  5
9F
100
AcDbEntity
  8
adafruit_term_switch
  6
ByLayer
 62
  256
370
   -1
100
AcDbCircle
 10
1.208307086614173
 20
0.2125
 40
0.001248031496063007
100
AcDbArc
 50
90
 51
270
  0
LINE
  5
A0
100
AcDbEntity
  8
adafruit_term_switch
  6
ByLayer
 62
  256
370
   -1
100
AcDbLine
 10
1.231661417322835
 20
0.2125
 11
1.2375
 21
0.2183385826771654
  0
ARC
  5
A1
100
AcDbEntity
  8
adafruit_term_switch
  6
ByLayer
 62
  256
370
   -1
100
AcDbCircle
 10
1.237499999999999
 20
0.2183366141732285
 40
0.001251357066064258
100
AcDbArc
 50
315.063732765165
 51
135.0637327651587
  0
ARC
  5
A2
100
AcDbEntity
  8
adafruit_term_switch
  6
ByLayer
 62
  256
370
   -1
100
AcDbCircle
 10
1.231663385826772
 20
0.2125
 40
0.001251357066064278
100
AcDbArc
 50
134.9362672348404
 51
314.9362672348323
  0
LINE
  5
A3
100
AcDbEntity
  8
adafruit_term_switch
  6
ByLayer
 62
  256
370
   -1
100
AcDbLine
 10
1.2375
 20
0.2183385826771654
 11
1.2375
 21
0.230015748031496
  0
ARC
  5
A4
100
AcDbEntity
  8
adafruit_term_switch
  6
ByLayer
 62
  256
370
   -1
100
AcDbCircle
 10
1.2375
 20
0.230015748031496
 40
0.001248031496063007
100
AcDbArc
 50
0
 51
180
  0
ARC
  5
A5
100
AcDbEntity
  8
adafruit_term_switch
  6
ByLayer
 62
  256
370
   -1
100
AcDbCircle
 10
1.2375
 20
0.2183385826771654
 40
0.001248031496063007
100
AcDbArc
 50
180
 51
0
  0
LINE
  5
A6
100
AcDbEntity
  8
adafruit_term_switch
  6
ByLayer
 62
  256
370
   -1
100
AcDbLine
 10
1.2375
 20
0.230015748031496
 11
1.231661417322835
 21
0.2358543307086614
  0
ARC
  5
A7
100
AcDbEntity
  8
adafruit_term_switch
  6
ByLayer
 62
  256
370
   -1
100
AcDbCircle
 10
1.231663385826772
 20
0.2358523622047244
 40
0.001249964349420278
100
AcDbArc
 50
45.0000000000027
 51
224.9999999999946
  0
ARC
  5
A8
100
AcDbEntity
  8
adafruit_term_switch
  6
ByLayer
 62
  256
370
   -1
100
AcDbCircle
 10
1.237499999999999
 20
0.230013779527559
 40
0.001251357066064258
100
AcDbArc
 50
224.9362672348421
 51
44.93626723483412
  0
LINE
  5
A9
100
AcDbEntity
  8
adafruit_term_switch
  6
ByLayer
 62
  256
370
   -1
100
AcDbLine
 10
1.231661417322835
 20
0.2358543307086614
 11
1.208307086614173
 21
0.2358543307086614
  0
ARC
  5
AA
100
AcDbEntity
  8
adafruit_term_switch
  6
ByLayer
 62
  256
370
   -1
100
AcDbCircle
 10
1.208307086614173
 20
0.2358523622047244
 40
0.001249999999999987
100
AcDbArc
 50
90
 51
270
  0
ARC
  5
AB
100
AcDbEntity
  8
adafruit_term_switch
  6
ByLayer
 62
  256
370
   -1
100
AcDbCircle
 10
1.231661417322835
 20
0.2358523622047244
 40
0.001249999999999987
100
AcDbArc
 50
270
 51
90
  0
LINE
  5
AC
100
AcDbEntity
  8
adafruit_term_switch
  6
ByLayer
 62
  256
370
   -1
100
AcDbLine
 10
1.208307086614173
 20
0.2358543307086614
 11
1.202468503937008
 21
0.230015748031496
  0
ARC
  5
AD
100
AcDbEntity
  8
adafruit_term_switch
  6
ByLayer
 62
  256
370
   -1
100
AcDbCircle
 10
1.202470472440945
 20
0.2300137795275591
 40
0.001249964349420239
100
AcDbArc
 50
134.9999999999955
 51
314.9999999999964
  0
ARC
  5
AE
100
AcDbEntity
  8
adafruit_term_switch
  6
ByLayer
 62
  256
370
   -1
100
AcDbCircle
 10
1.20830905511811
 20
0.2358523622047244
 40
0.001249964349420278
100
AcDbArc
 50
315.0000000000054
 51
134.9999999999973
  0
LINE
  5
AF
100
AcDbEntity
  8
adafruit_term_switch
  6
ByLayer
 62
  256
370
   -1
100
AcDbLine
 10
1.2375
 20
0.2493307086614173
 11
1.202468503937008
 21
0.2493307086614173
  0
ARC
  5
B0
100
AcDbEntity
  8
adafruit_term_switch
  6
ByLayer
 62
  256
370
   -1
100
AcDbCircle
 10
1.202468503937008
 20
0.2493326771653543
 40
0.001250000000000015
100
AcDbArc
 50
90
 51
270
  0
ARC
  5
B1
100
AcDbEntity
  8
adafruit_term_switch
  6
ByLayer
 62
  256
370
   -1
100
AcDbCircle
 10
1.2375
 20
0.2493326771653543
 40
0.001250000000000015
100
AcDbArc
 50
270
 51
90
  0
LINE
  5
B2
100
AcDbEntity
  8
adafruit_term_switch
  6
ByLayer
 62
  256
370
   -1
100
AcDbLine
 10
1.202468503937008
 20
0.2493307086614173
 11
1.202468503937008
 21
0.2726850393700787
  0
ARC
  5
B3
100
AcDbEntity
  8
adafruit_term_switch
  6
ByLayer
 62
  256
370
   -1
100
AcDbCircle
 10
1.202470472440945
 20
0.2726850393700787
 40
0.001249999999999973
100
AcDbArc
 50
0
 51
180
  0
ARC
  5
B4
100
AcDbEntity
  8
adafruit_term_switch
  6
ByLayer
 62
  256
370
   -1
100
AcDbCircle
 10
1.202470472440945
 20
0.2493307086614173
 40
0.001249999999999973
100
AcDbArc
 50
180
 51
0
  0
LINE
  5
B5
100
AcDbEntity
  8
adafruit_term_switch
  6
ByLayer
 62
  256
370
   -1
100
AcDbLine
 10
1.219984251968504
 20
0.2493307086614173
 11
1.219984251968504
 21
0.261007874015748
  0
ARC
  5
B6
100
AcDbEntity
  8
adafruit_term_switch
  6
ByLayer
 62
  256
370
   -1
100
AcDbCircle
 10
1.219986220472441
 20
0.261007874015748
 40
0.001249999999999973
100
AcDbArc
 50
0
 51
180
  0
ARC
  5
B7
100
AcDbEntity
  8
adafruit_term_switch
  6
ByLayer
 62
  256
370
   -1
100
AcDbCircle
 10
1.219986220472441
 20
0.2493307086614173
 40
0.001249999999999973
100
AcDbArc
 50
180
 51
0
  0
LINE
  5
B8
100
AcDbEntity
  8
adafruit_term_switch
  6
ByLayer
 62
  256
370
   -1
100
AcDbLine
 10
1.2375
 20
0.2861614173228347
 11
1.202468503937008
 21
0.2861614173228347
  0
ARC
  5
B9
100
AcDbEntity
  8
adafruit_term_switch
  6
ByLayer
 62
  256
370
   -1
100
AcDbCircle
 10
1.202468503937008
 20
0.2861633858267716
 40
0.001250000000000029
100
AcDbArc
 50
90
 51
270
  0
ARC
  5
BA
100
AcDbEntity
  8
adafruit_term_switch
  6
ByLayer
 62
  256
370
   -1
100
AcDbCircle
 10
1.2375
 20
0.2861633858267716
 40
0.001250000000000029
100
AcDbArc
 50
270
 51
90
  0
LINE
  5
BB
100
AcDbEntity
  8
adafruit_term_switch
  6
ByLayer
 62
  256
370
   -1
100
AcDbLine
 10
1.202468503937008
 20
0.2861614173228347
 11
1.202468503937008
 21
0.3095157480314961
  0
ARC
  5
BC
100
AcDbEntity
  8
adafruit_term_switch
  6
ByLayer
 62
  256
370
   -1
100
AcDbCircle
 10
1.202470472440945
 20
0.3095157480314961
 40
0.001249999999999973
100
AcDbArc
 50
0
 51
180
  0
ARC
  5
BD
100
AcDbEntity
  8
adafruit_term_switch
  6
ByLayer
 62
  256
370
   -1
100
AcDbCircle
 10
1.202470472440945
 20
0.2861614173228347
 40
0.001249999999999973
100
AcDbArc
 50
180
 51
0
  0
LINE
  5
BE
100
AcDbEntity
  8
adafruit_term_switch
  6
ByLayer
 62
  256
370
   -1
100
AcDbLine
 10
1.219984251968504
 20
0.2861614173228347
 11
1.219984251968504
 21
0.2978385826771653
  0
ARC
  5
BF
100
AcDbEntity
  8
adafruit_term_switch
  6
ByLayer
 62
  256
370
   -1
100
AcDbCircle
 10
1.219986220472441
 20
0.2978385826771653
 40
0.001249999999999973
100
AcDbArc
 50
0
 51
180
  0
ARC
  5
C0
100
AcDbEntity
  8
adafruit_term_switch
  6
ByLayer
 62
  256
370
   -1
100
AcDbCircle
 10
1.219986220472441
 20
0.2861614173228347
 40
0.001249999999999973
100
AcDbArc
 50
180
 51
0
  0
ARC
  5
C1
100
AcDbEntity
  8
adafruit_term_switch
  6
ByLayer
 62
  256
370
   -1
100
AcDbCircle
 10
1.095198818897638
 20
-0.02755905511811023
 40
0.001249999999999973
100
AcDbArc
 50
0
 51
180
  0
ARC
  5
C2
100
AcDbEntity
  8
adafruit_term_switch
  6
ByLayer
 62
  256
370
   -1
100
AcDbCircle
 10
1.095198818897638
 20
-0.1968503937007874
 40
0.001249999999999973
100
AcDbArc
 50
180
 51
0
  0
ARC
  5
C3
100
AcDbEntity
  8
adafruit_term_switch
  6
ByLayer
 62
  256
370
   -1
100
AcDbCircle
 10
1.095198818897638
 20
0.02755905511811023
 40
0.001249999999999973
100
AcDbArc
 50
0
 51
180
  0
ARC
  5
C4
100
AcDbEntity
  8
adafruit_term_switch
  6
ByLayer
 62
  256
370
   -1
100
AcDbCircle
 10
1.095198818897638
 20
-0.02755905511811023
 40
0.001249999999999973
100
AcDbArc
 50
180
 51
0
  0
LINE
  5
C5
100
AcDbEntity
  8
adafruit_term_switch
  6
ByLayer
 62
  256
370
   -1
100
AcDbLine
 10
1.095196850393701
 20
0.02755905511811023
 11
1.095196850393701
 21
0.1968503937007874
  0
ARC
  5
C6
100
AcDbEntity
  8
adafruit_term_switch
  6
ByLayer
 62
  256
370
   -1
100
AcDbCircle
 10
1.095198818897638
 20
0.02755905511811023
 40
0.001249999999999973
100
AcDbArc
 50
180
 51
0
  0
LINE
  5
C7
100
AcDbEntity
  8
adafruit_term_switch
  6
ByLayer
 62
  256
370
   -1
100
AcDbLine
 10
1.095196850393701
 20
0.1968503937007874
 11
1.244803149606299
 21
0.1968503937007874
  0
ARC
  5
C8
100
AcDbEntity
  8
adafruit_term_switch
  6
ByLayer
 62
  256
370
   -1
100
AcDbCircle
 10
1.244803149606299
 20
0.1968503937007874
 40
0.001248031496062993
100
AcDbArc
 50
270
 51
90
  0
LINE
  5
C9
100
AcDbEntity
  8
adafruit_term_switch
  6
ByLayer
 62
  256
370
   -1
100
AcDbLine
 10
1.244803149606299
 20
0.1968503937007874
 11
1.244803149606299
 21
0.08267716535433071
  0
ARC
  5
CA
100
AcDbEntity
  8
adafruit_term_switch
  6
ByLayer
 62
  256
370
   -1
100
AcDbCircle
 10
1.244805118110236
 20
0.08267716535433071
 40
0.001249999999999973
100
AcDbArc
 50
180
 51
0
  0
ARC
  5
CB
100
AcDbEntity
  8
adafruit_term_switch
  6
ByLayer
 62
  256
370
   -1
100
AcDbCircle
 10
1.244805118110236
 20
0.1968503937007874
 40
0.001249999999999973
100
AcDbArc
 50
0
 51
180
  0
LINE
  5
CC
100
AcDbEntity
  8
adafruit_term_switch
  6
ByLayer
 62
  256
370
   -1
100
AcDbLine
 10
1.244803149606299
 20
0.08267716535433071
 11
1.244803149606299
 21
0.03937007874015748
  0
ARC
  5
CD
100
AcDbEntity
  8
adafruit_term_switch
  6
ByLayer
 62
  256
370
   -1
100
AcDbCircle
 10
1.244805118110236
 20
0.03937007874015748
 40
0.001249999999999973
100
AcDbArc
 50
180
 51
0
  0
ARC
  5
CE
100
AcDbEntity
  8
adafruit_term_switch
  6
ByLayer
 62
  256
370
   -1
100
AcDbCircle
 10
1.244805118110236
 20
0.08267716535433071
 40
0.001249999999999973
100
AcDbArc
 50
0
 51
180
  0
LINE
  5
CF
100
AcDbEntity
  8
adafruit_term_switch
  6
ByLayer
 62
  256
370
   -1
100
AcDbLine
 10
1.244803149606299
 20
0.03937007874015748
 11
1.244803149606299
 21
-0.03937007874015748
  0
ARC
  5
D0
100
AcDbEntity
  8
adafruit_term_switch
  6
ByLayer
 62
  256
370
   -1
100
AcDbCircle
 10
1.244805118110236
 20
-0.03937007874015748
 40
0.001249999999999973
100
AcDbArc
 50
180
 51
0
  0
ARC
  5
D1
100
AcDbEntity
  8
adafruit_term_switch
  6
ByLayer
 62
  256
370
   -1
100
AcDbCircle
 10
1.244805118110236
 20
0.03937007874015748
 40
0.001249999999999973
100
AcDbArc
 50
0
 51
180
  0
LINE
  5
D2
100
AcDbEntity
  8
adafruit_term_switch
  6
ByLayer
 62
  256
370
   -1
100
AcDbLine
 10
1.244803149606299
 20
-0.03937007874015748
 11
1.244803149606299
 21
-0.08267716535433071
  0
ARC
  5
D3
100
AcDbEntity
  8
adafruit_term_switch
  6
ByLayer
 62
  256
370
   -1
100
AcDbCircle
 10
1.244805118110236
 20
-0.08267716535433071
 40
0.001249999999999973
100
AcDbArc
 50
180
 51
0
  0
ARC
  5
D4
100
AcDbEntity
  8
adafruit_term_switch
  6
ByLayer
 62
  256
370
   -1
100
AcDbCircle
 10
1.244805118110236
 20
-0.03937007874015748
 40
0.001249999999999973
100
AcDbArc
 50
0
 51
180
  0
LINE
  5
D5
100
AcDbEntity
  8
adafruit_term_switch
  6
ByLayer
 62
  256
370
   -1
100
AcDbLine
 10
1.244803149606299
 20
-0.08267716535433071
 11
1.244803149606299
 21
-0.1968503937007874
  0
ARC
  5
D6
100
AcDbEntity
  8
adafruit_term_switch
  6
ByLayer
 62
  256
370
   -1
100
AcDbCircle
 10
1.244805118110236
 20
-0.1968503937007874
 40
0.001249999999999973
100
AcDbArc
 50
180
 51
0
  0
ARC
  5
D7
100
AcDbEntity
  8
adafruit_term_switch
  6
ByLayer
 62
  256
370
   -1
100
AcDbCircle
 10
1.244805118110236
 20
-0.08267716535433071
 40
0.001249999999999973
100
AcDbArc
 50
0
 51
180
  0
LINE
  5
D8
100
AcDbEntity
  8
adafruit_term_switch
  6
ByLayer
 62
  256
370
   -1
100
AcDbLine
 10
1.244803149606299
 20
-0.1968503937007874
 11
1.095196850393701
 21
-0.1968503937007874
  0
ARC
  5
D9
100
AcDbEntity
  8
adafruit_term_switch
  6
ByLayer
 62
  256
370
   -1
100
AcDbCircle
 10
1.244803149606299
 20
-0.1968503937007874
 40
0.001248031496062993
100
AcDbArc
 50
270
 51
90
  0
LINE
  5
DA
100
AcDbEntity
  8
adafruit_term_switch
  6
ByLayer
 62
  256
370
   -1
100
AcDbLine
 10
1.095196850393701
 20
-0.02755905511811023
 11
1.122755905511811
 21
-0.02755905511811023
  0
ARC
  5
DB
100
AcDbEntity
  8
adafruit_term_switch
  6
ByLayer
 62
  256
370
   -1
100
AcDbCircle
 10
1.122755905511811
 20
-0.02756102362204725
 40
0.001249999999999999
100
AcDbArc
 50
270
 51
90
  0
LINE
  5
DC
100
AcDbEntity
  8
adafruit_term_switch
  6
ByLayer
 62
  256
370
   -1
100
AcDbLine
 10
1.122755905511811
 20
-0.02755905511811023
 11
1.122755905511811
 21
0.02755905511811023
  0
ARC
  5
DD
100
AcDbEntity
  8
adafruit_term_switch
  6
ByLayer
 62
  256
370
   -1
100
AcDbCircle
 10
1.122755905511811
 20
0.02755905511811023
 40
0.001248031496063007
100
AcDbArc
 50
0
 51
180
  0
ARC
  5
DE
100
AcDbEntity
  8
adafruit_term_switch
  6
ByLayer
 62
  256
370
   -1
100
AcDbCircle
 10
1.122755905511811
 20
-0.02755905511811023
 40
0.001248031496063007
100
AcDbArc
 50
180
 51
0
  0
LINE
  5
DF
100
AcDbEntity
  8
adafruit_term_switch
  6
ByLayer
 62
  256
370
   -1
100
AcDbLine
 10
1.122755905511811
 20
0.02755905511811023
 11
1.095196850393701
 21
0.02755905511811023
  0
ARC
  5
E0
100
AcDbEntity
  8
adafruit_term_switch
  6
ByLayer
 62
  256
370
   -1
100
AcDbCircle
 10
1.122755905511811
 20
0.02756102362204725
 40
0.001249999999999999
100
AcDbArc
 50
270
 51
90
  0
LINE
  5
E1
100
AcDbEntity
  8
adafruit_term_switch
  6
ByLayer
 62
  256
370
   -1
100
AcDbLine
 10
1.244803149606299
 20
-0.08267716535433071
 11
1.232992125984252
 21
-0.08267716535433071
  0
ARC
  5
E2
100
AcDbEntity
  8
adafruit_term_switch
  6
ByLayer
 62
  256
370
   -1
100
AcDbCircle
 10
1.232992125984252
 20
-0.08267716535433071
 40
0.001251968503937009
100
AcDbArc
 50
90
 51
270
  0
ARC
  5
E3
100
AcDbEntity
  8
adafruit_term_switch
  6
ByLayer
 62
  256
370
   -1
100
AcDbCircle
 10
1.244803149606299
 20
-0.08267716535433071
 40
0.001251968503937009
100
AcDbArc
 50
270
 51
90
  0
LINE
  5
E4
100
AcDbEntity
  8
adafruit_term_switch
  6
ByLayer
 62
  256
370
   -1
100
AcDbLine
 10
1.232992125984252
 20
-0.08267716535433071
 11
1.232992125984252
 21
0.08267716535433071
  0
ARC
  5
E5
100
AcDbEntity
  8
adafruit_term_switch
  6
ByLayer
 62
  256
370
   -1
100
AcDbCircle
 10
1.232994094488189
 20
0.08267716535433071
 40
0.001249999999999973
100
AcDbArc
 50
0
 51
180
  0
ARC
  5
E6
100
AcDbEntity
  8
adafruit_term_switch
  6
ByLayer
 62
  256
370
   -1
100
AcDbCircle
 10
1.232994094488189
 20
-0.08267716535433071
 40
0.001249999999999973
100
AcDbArc
 50
180
 51
0
  0
LINE
  5
E7
100
AcDbEntity
  8
adafruit_term_switch
  6
ByLayer
 62
  256
370
   -1
100
AcDbLine
 10
1.232992125984252
 20
0.08267716535433071
 11
1.244803149606299
 21
0.08267716535433071
  0
ARC
  5
E8
100
AcDbEntity
  8
adafruit_term_switch
  6
ByLayer
 62
  256
370
   -1
100
AcDbCircle
 10
1.244803149606299
 20
0.08267716535433071
 40
0.001251968503937009
100
AcDbArc
 50
270
 51
90
  0
ARC
  5
E9
100
AcDbEntity
  8
adafruit_term_switch
  6
ByLayer
 62
  256
370
   -1
100
AcDbCircle
 10
1.232992125984252
 20
0.08267716535433071
 40
0.001251968503937009
100
AcDbArc
 50
90
 51
270
  0
LINE
  5
EA
100
AcDbEntity
  8
adafruit_term_switch
  6
ByLayer
 62
  256
370
   -1
100
AcDbLine
 10
1.244803149606299
 20
-0.03937007874015748
 11
1.445590551181102
 21
-0.03937007874015748
  0
ARC
  5
EB
100
AcDbEntity
  8
adafruit_term_switch
  6
ByLayer
 62
  256
370
   -1
100
AcDbCircle
 10
1.445590551181102
 20
-0.03937007874015748
 40
0.001248031496062993
100
AcDbArc
 50
270
 51
90
  0
ARC
  5
EC
100
AcDbEntity
  8
adafruit_term_switch
  6
ByLayer
 62
  256
370
   -1
100
AcDbCircle
 10
1.244803149606299
 20
-0.03937007874015748
 40
0.001248031496062993
100
AcDbArc
 50
90
 51
270
  0
LINE
  5
ED
100
AcDbEntity
  8
adafruit_term_switch
  6
ByLayer
 62
  256
370
   -1
100
AcDbLine
 10
1.445590551181102
 20
-0.03937007874015748
 11
1.445590551181102
 21
0.03937007874015748
  0
ARC
  5
EE
100
AcDbEntity
  8
adafruit_term_switch
  6
ByLayer
 62
  256
370
   -1
100
AcDbCircle
 10
1.445592519685039
 20
0.03937007874015748
 40
0.001250000000000528
100
AcDbArc
 50
0
 51
180
  0
ARC
  5
EF
100
AcDbEntity
  8
adafruit_term_switch
  6
ByLayer
 62
  256
370
   -1
100
AcDbCircle
 10
1.445592519685039
 20
-0.03937007874015748
 40
0.001250000000000528
100
AcDbArc
 50
180
 51
0
  0
LINE
  5
F0
100
AcDbEntity
  8
adafruit_term_switch
  6
ByLayer
 62
  256
370
   -1
100
AcDbLine
 10
1.445590551181102
 20
0.03937007874015748
 11
1.244803149606299
 21
0.03937007874015748
  0
ARC
  5
F1
100
AcDbEntity
  8
adafruit_term_switch
  6
ByLayer
 62
  256
370
   -1
100
AcDbCircle
 10
1.244803149606299
 20
0.03937007874015748
 40
0.001248031496062993
100
AcDbArc
 50
90
 51
270
  0
ARC
  5
F2
100
AcDbEntity
  8
adafruit_term_switch
  6
ByLayer
 62
  256
370
   -1
100
AcDbCircle
 10
1.445590551181102
 20
0.03937007874015748
 40
0.001248031496062993
100
AcDbArc
 50
270
 51
90
  0
ARC
  5
F3
100
AcDbEntity
  8
adafruit_term_holes
  6
ByLayer
 62
  256
370
   -1
100
AcDbCircle
 10
-1.15
 20
0.4
 40
0.08661417322834639
100
AcDbArc
 50
270
 51
90
  0
ARC
  5
F4
100
AcDbEntity
  8
adafruit_term_holes
  6
ByLayer
 62
  256
370
   -1
100
AcDbCircle
 10
-1.15
 20
0.4
 40
0.08661417322834641
100
AcDbArc
 50
90
 51
270
  0
ARC
  5
F5
100
AcDbEntity
  8
adafruit_term_holes
  6
ByLayer
 62
  256
370
   -1
100
AcDbCircle
 10
-1.15
 20
-0.4
 40
0.08661417322834639
100
AcDbArc
 50
270
 51
90
  0
ARC
  5
F6
100
AcDbEntity
  8
adafruit_term_holes
  6
ByLayer
 62
  256
370
   -1
100
AcDbCircle
 10
-1.15
 20
-0.4
 40
0.08661417322834639
100
AcDbArc
 50
90
 51
270
  0
ARC
  5
F7
100
AcDbEntity
  8
adafruit_term_holes
  6
ByLayer
 62
  256
370
   -1
100
AcDbCircle
 10
1.15
 20
-0.4
 40
0.08661417322834639
100
AcDbArc
 50
270
 51
90
  0
ARC
  5
F8
100
AcDbEntity
  8
adafruit_term_holes
  6
ByLayer
 62
  256
370
   -1
100
AcDbCircle
 10
1.15
 20
-0.4
 40
0.08661417322834639
100
AcDbArc
 50
90
 51
270
  0
ARC
  5
F9
100
AcDbEntity
  8
adafruit_term_holes
  6
ByLayer
 62
  256
370
   -1
100
AcDbCircle
 10
1.15
 20
0.4
 40
0.08661417322834639
100
AcDbArc
 50
270
 51
90
  0
ARC
  5
FA
100
AcDbEntity
  8
adafruit_term_holes
  6
ByLayer
 62
  256
370
   -1
100
AcDbCircle
 10
1.15
 20
0.4
 40
0.08661417322834641
100
AcDbArc
 50
90
 51
270
  0
LWPOLYLINE
  5
FB
100
AcDbEntity
  8
adafruit_term_holes
  6
ByLayer
 62
  256
370
   -1
100
AcDbPolyline
 90
    3
 70
    0
 43
0
 10
1.15
 20
0.3604724409448819
 42
0.9999999999999999
 10
1.15
 20
0.4395275590551181
 42
0.9999999999999999
 10
1.15
 20
0.3604724409448819
 42
0.9999999999999999
  0
LINE
  5
FC
100
AcDbEntity
  8
adafruit_term_usb_label
  6
ByLayer
 62
  256
370
   -1
100
AcDbLine
 10
-1.2025
 20
-0.1475
 11
-1.237531496062992
 21
-0.1475
  0
ARC
  5
FD
100
AcDbEntity
  8
adafruit_term_usb_label
  6
ByLayer
 62
  256
370
   -1
100
AcDbCircle
 10
-1.237531496062992
 20
-0.1475
 40
0.001251968503936995
100
AcDbArc
 50
90
 51
270
  0
ARC
  5
FE
100
AcDbEntity
  8
adafruit_term_usb_label
  6
ByLayer
 62
  256
370
   -1
100
AcDbCircle
 10
-1.2025
 20
-0.1475
 40
0.001251968503936995
100
AcDbArc
 50
270
 51
90
  0
LINE
  5
FF
100
AcDbEntity
  8
adafruit_term_usb_label
  6
ByLayer
 62
  256
370
   -1
100
AcDbLine
 10
-1.237531496062992
 20
-0.1475
 11
-1.225854330708661
 21
-0.1358228346456693
  0
ARC
  5
100
100
AcDbEntity
  8
adafruit_term_usb_label
  6
ByLayer
 62
  256
370
   -1
100
AcDbCircle
 10
-1.225852362204725
 20
-0.1358248031496063
 40
0.001249964349420327
100
AcDbArc
 50
315.0000000000027
 51
134.9999999999955
  0
ARC
  5
101
100
AcDbEntity
  8
adafruit_term_usb_label
  6
ByLayer
 62
  256
370
   -1
100
AcDbCircle
 10
-1.237529527559055
 20
-0.1475
 40
0.001251357066064278
100
AcDbArc
 50
134.9362672348395
 51
314.9362672348332
  0
LINE
  5
102
100
AcDbEntity
  8
adafruit_term_usb_label
  6
ByLayer
 62
  256
370
   -1
100
AcDbLine
 10
-1.225854330708661
 20
-0.1358228346456693
 11
-1.237531496062992
 21
-0.1241456692913386
  0
ARC
  5
103
100
AcDbEntity
  8
adafruit_term_usb_label
  6
ByLayer
 62
  256
370
   -1
100
AcDbCircle
 10
-1.237529527559055
 20
-0.1241476377952756
 40
0.001249964349420317
100
AcDbArc
 50
45.00000000000404
 51
224.9999999999968
  0
ARC
  5
104
100
AcDbEntity
  8
adafruit_term_usb_label
  6
ByLayer
 62
  256
370
   -1
100
AcDbCircle
 10
-1.225852362204725
 20
-0.1358248031496063
 40
0.001249964349420327
100
AcDbArc
 50
225.0000000000045
 51
44.9999999999973
  0
LINE
  5
105
100
AcDbEntity
  8
adafruit_term_usb_label
  6
ByLayer
 62
  256
370
   -1
100
AcDbLine
 10
-1.237531496062992
 20
-0.1241456692913386
 11
-1.2025
 21
-0.1241456692913386
  0
ARC
  5
106
100
AcDbEntity
  8
adafruit_term_usb_label
  6
ByLayer
 62
  256
370
   -1
100
AcDbCircle
 10
-1.2025
 20
-0.1241476377952755
 40
0.001249999999999946
100
AcDbArc
 50
270
 51
90
  0
ARC
  5
107
100
AcDbEntity
  8
adafruit_term_usb_label
  6
ByLayer
 62
  256
370
   -1
100
AcDbCircle
 10
-1.237531496062992
 20
-0.1241476377952755
 40
0.001249999999999946
100
AcDbArc
 50
90
 51
270
  0
LINE
  5
108
100
AcDbEntity
  8
adafruit_term_usb_label
  6
ByLayer
 62
  256
370
   -1
100
AcDbLine
 10
-1.225854330708661
 20
-0.1106692913385827
 11
-1.225854330708661
 21
-0.1048307086614173
  0
ARC
  5
109
100
AcDbEntity
  8
adafruit_term_usb_label
  6
ByLayer
 62
  256
370
   -1
100
AcDbCircle
 10
-1.225852362204724
 20
-0.1048307086614173
 40
0.001249999999999973
100
AcDbArc
 50
0
 51
180
  0
ARC
  5
10A
100
AcDbEntity
  8
adafruit_term_usb_label
  6
ByLayer
 62
  256
370
   -1
100
AcDbCircle
 10
-1.225852362204724
 20
-0.1106692913385827
 40
0.001249999999999973
100
AcDbArc
 50
180
 51
0
  0
LINE
  5
10B
100
AcDbEntity
  8
adafruit_term_usb_label
  6
ByLayer
 62
  256
370
   -1
100
AcDbLine
 10
-1.225854330708661
 20
-0.1048307086614173
 11
-1.2025
 21
-0.1048307086614173
  0
ARC
  5
10C
100
AcDbEntity
  8
adafruit_term_usb_label
  6
ByLayer
 62
  256
370
   -1
100
AcDbCircle
 10
-1.2025
 20
-0.1048287401574803
 40
0.001250000000000001
100
AcDbArc
 50
270
 51
90
  0
ARC
  5
10D
100
AcDbEntity
  8
adafruit_term_usb_label
  6
ByLayer
 62
  256
370
   -1
100
AcDbCircle
 10
-1.225854330708661
 20
-0.1048287401574803
 40
0.001250000000000001
100
AcDbArc
 50
90
 51
270
  0
LINE
  5
10E
100
AcDbEntity
  8
adafruit_term_usb_label
  6
ByLayer
 62
  256
370
   -1
100
AcDbLine
 10
-1.2025
 20
-0.1106692913385827
 11
-1.2025
 21
-0.09899212598425197
  0
ARC
  5
10F
100
AcDbEntity
  8
adafruit_term_usb_label
  6
ByLayer
 62
  256
370
   -1
100
AcDbCircle
 10
-1.202501968503937
 20
-0.09899212598425197
 40
0.001250000000000084
100
AcDbArc
 50
0
 51
180
  0
ARC
  5
110
100
AcDbEntity
  8
adafruit_term_usb_label
  6
ByLayer
 62
  256
370
   -1
100
AcDbCircle
 10
-1.202501968503937
 20
-0.1106692913385827
 40
0.001250000000000084
100
AcDbArc
 50
180
 51
0
  0
LINE
  5
111
100
AcDbEntity
  8
adafruit_term_usb_label
  6
ByLayer
 62
  256
370
   -1
100
AcDbLine
 10
-1.243370078740158
 20
-0.1048307086614173
 11
-1.237531496062992
 21
-0.1048307086614173
  0
ARC
  5
112
100
AcDbEntity
  8
adafruit_term_usb_label
  6
ByLayer
 62
  256
370
   -1
100
AcDbCircle
 10
-1.237531496062992
 20
-0.1048287401574803
 40
0.001250000000000001
100
AcDbArc
 50
270
 51
90
  0
ARC
  5
113
100
AcDbEntity
  8
adafruit_term_usb_label
  6
ByLayer
 62
  256
370
   -1
100
AcDbCircle
 10
-1.243370078740158
 20
-0.1048287401574803
 40
0.001250000000000001
100
AcDbArc
 50
90
 51
270
  0
LINE
  5
114
100
AcDbEntity
  8
adafruit_term_usb_label
  6
ByLayer
 62
  256
370
   -1
100
AcDbLine
 10
-1.225854330708661
 20
-0.06275984251968504
 11
-1.225854330708661
 21
-0.08027559055118111
  0
ARC
  5
115
100
AcDbEntity
  8
adafruit_term_usb_label
  6
ByLayer
 62
  256
370
   -1
100
AcDbCircle
 10
-1.225852362204724
 20
-0.08027559055118111
 40
0.001249999999999973
100
AcDbArc
 50
180
 51
0
  0
ARC
  5
116
100
AcDbEntity
  8
adafruit_term_usb_label
  6
ByLayer
 62
  256
370
   -1
100
AcDbCircle
 10
-1.225852362204724
 20
-0.06275984251968504
 40
0.001249999999999973
100
AcDbArc
 50
0
 51
180
  0
LINE
  5
117
100
AcDbEntity
  8
adafruit_term_usb_label
  6
ByLayer
 62
  256
370
   -1
100
AcDbLine
 10
-1.225854330708661
 20
-0.08027559055118111
 11
-1.220015748031496
 21
-0.08611417322834646
  0
ARC
  5
118
100
AcDbEntity
  8
adafruit_term_usb_label
  6
ByLayer
 62
  256
370
   -1
100
AcDbCircle
 10
-1.220013779527559
 20
-0.08611614173228346
 40
0.001249964349419925
100
AcDbArc
 50
225.0000000000185
 51
45.00000000001845
  0
ARC
  5
119
100
AcDbEntity
  8
adafruit_term_usb_label
  6
ByLayer
 62
  256
370
   -1
100
AcDbCircle
 10
-1.225852362204725
 20
-0.08027755905511812
 40
0.001249964349420317
100
AcDbArc
 50
44.99999999999685
 51
225.000000000004
  0
LINE
  5
11A
100
AcDbEntity
  8
adafruit_term_usb_label
  6
ByLayer
 62
  256
370
   -1
100
AcDbLine
 10
-1.220015748031496
 20
-0.08611417322834646
 11
-1.208338582677165
 21
-0.08611417322834646
  0
ARC
  5
11B
100
AcDbEntity
  8
adafruit_term_usb_label
  6
ByLayer
 62
  256
370
   -1
100
AcDbCircle
 10
-1.208338582677165
 20
-0.08611614173228348
 40
0.001249999999999987
100
AcDbArc
 50
270
 51
90
  0
ARC
  5
11C
100
AcDbEntity
  8
adafruit_term_usb_label
  6
ByLayer
 62
  256
370
   -1
100
AcDbCircle
 10
-1.220015748031496
 20
-0.08611614173228348
 40
0.001249999999999987
100
AcDbArc
 50
90
 51
270
  0
LINE
  5
11D
100
AcDbEntity
  8
adafruit_term_usb_label
  6
ByLayer
 62
  256
370
   -1
100
AcDbLine
 10
-1.208338582677165
 20
-0.08611417322834646
 11
-1.2025
 21
-0.08027559055118111
  0
ARC
  5
11E
100
AcDbEntity
  8
adafruit_term_usb_label
  6
ByLayer
 62
  256
370
   -1
100
AcDbCircle
 10
-1.202500000000001
 20
-0.08027755905511805
 40
0.001251357066064253
100
AcDbArc
 50
315.0637327651659
 51
135.0637327651583
  0
ARC
  5
11F
100
AcDbEntity
  8
adafruit_term_usb_label
  6
ByLayer
 62
  256
370
   -1
100
AcDbCircle
 10
-1.208336614173228
 20
-0.08611614173228355
 40
0.001249964349420308
100
AcDbArc
 50
135.0000000000036
 51
314.9999999999964
  0
LINE
  5
120
100
AcDbEntity
  8
adafruit_term_usb_label
  6
ByLayer
 62
  256
370
   -1
100
AcDbLine
 10
-1.2025
 20
-0.08027559055118111
 11
-1.2025
 21
-0.06275984251968504
  0
ARC
  5
121
100
AcDbEntity
  8
adafruit_term_usb_label
  6
ByLayer
 62
  256
370
   -1
100
AcDbCircle
 10
-1.202501968503937
 20
-0.06275984251968504
 40
0.001250000000000084
100
AcDbArc
 50
0
 51
180
  0
ARC
  5
122
100
AcDbEntity
  8
adafruit_term_usb_label
  6
ByLayer
 62
  256
370
   -1
100
AcDbCircle
 10
-1.202501968503937
 20
-0.08027559055118111
 40
0.001250000000000084
100
AcDbArc
 50
180
 51
0
  0
LINE
  5
123
100
AcDbEntity
  8
adafruit_term_usb_label
  6
ByLayer
 62
  256
370
   -1
100
AcDbLine
 10
-1.2025
 20
-0.04928346456692913
 11
-1.225854330708661
 21
-0.04928346456692913
  0
ARC
  5
124
100
AcDbEntity
  8
adafruit_term_usb_label
  6
ByLayer
 62
  256
370
   -1
100
AcDbCircle
 10
-1.225854330708661
 20
-0.04928149606299212
 40
0.001250000000000001
100
AcDbArc
 50
90
 51
270
  0
ARC
  5
125
100
AcDbEntity
  8
adafruit_term_usb_label
  6
ByLayer
 62
  256
370
   -1
100
AcDbCircle
 10
-1.2025
 20
-0.04928149606299212
 40
0.001250000000000001
100
AcDbArc
 50
270
 51
90
  0
LINE
  5
126
100
AcDbEntity
  8
adafruit_term_usb_label
  6
ByLayer
 62
  256
370
   -1
100
AcDbLine
 10
-1.214177165354331
 20
-0.04928346456692913
 11
-1.225854330708661
 21
-0.03760629921259843
  0
ARC
  5
127
100
AcDbEntity
  8
adafruit_term_usb_label
  6
ByLayer
 62
  256
370
   -1
100
AcDbCircle
 10
-1.225852362204725
 20
-0.03760629921259842
 40
0.00125135706606428
100
AcDbArc
 50
45.06373276516005
 51
225.0637327651675
  0
ARC
  5
128
100
AcDbEntity
  8
adafruit_term_usb_label
  6
ByLayer
 62
  256
370
   -1
100
AcDbCircle
 10
-1.214175196850393
 20
-0.04928149606299205
 40
0.00124996434942031
100
AcDbArc
 50
224.9999999999964
 51
45.00000000000382
  0
LINE
  5
129
100
AcDbEntity
  8
adafruit_term_usb_label
  6
ByLayer
 62
  256
370
   -1
100
AcDbLine
 10
-1.225854330708661
 20
-0.03760629921259843
 11
-1.225854330708661
 21
-0.03176771653543307
  0
ARC
  5
12A
100
AcDbEntity
  8
adafruit_term_usb_label
  6
ByLayer
 62
  256
370
   -1
100
AcDbCircle
 10
-1.225852362204724
 20
-0.03176771653543307
 40
0.001249999999999973
100
AcDbArc
 50
0
 51
180
  0
ARC
  5
12B
100
AcDbEntity
  8
adafruit_term_usb_label
  6
ByLayer
 62
  256
370
   -1
100
AcDbCircle
 10
-1.225852362204724
 20
-0.03760629921259843
 40
0.001249999999999973
100
AcDbArc
 50
180
 51
0
  0
LINE
  5
12C
100
AcDbEntity
  8
adafruit_term_usb_label
  6
ByLayer
 62
  256
370
   -1
100
AcDbLine
 10
-1.2025
 20
-0.01275196850393701
 11
-1.2025
 21
-0.001074803149606299
  0
ARC
  5
12D
100
AcDbEntity
  8
adafruit_term_usb_label
  6
ByLayer
 62
  256
370
   -1
100
AcDbCircle
 10
-1.202501968503937
 20
-0.001074803149606299
 40
0.001250000000000084
100
AcDbArc
 50
0
 51
180
  0
ARC
  5
12E
100
AcDbEntity
  8
adafruit_term_usb_label
  6
ByLayer
 62
  256
370
   -1
100
AcDbCircle
 10
-1.202501968503937
 20
-0.01275196850393701
 40
0.001250000000000084
100
AcDbArc
 50
180
 51
0
  0
LINE
  5
12F
100
AcDbEntity
  8
adafruit_term_usb_label
  6
ByLayer
 62
  256
370
   -1
100
AcDbLine
 10
-1.2025
 20
-0.001074803149606299
 11
-1.208338582677165
 21
0.004763779527559055
  0
ARC
  5
130
100
AcDbEntity
  8
adafruit_term_usb_label
  6
ByLayer
 62
  256
370
   -1
100
AcDbCircle
 10
-1.208336614173228
 20
0.004761811023622117
 40
0.001249964349420311
100
AcDbArc
 50
45.00000000000374
 51
224.9999999999965
  0
ARC
  5
131
100
AcDbEntity
  8
adafruit_term_usb_label
  6
ByLayer
 62
  256
370
   -1
100
AcDbCircle
 10
-1.202500000000001
 20
-0.001076771653543377
 40
0.001251357066064252
100
AcDbArc
 50
224.9362672348414
 51
44.93626723483427
  0
LINE
  5
132
100
AcDbEntity
  8
adafruit_term_usb_label
  6
ByLayer
 62
  256
370
   -1
100
AcDbLine
 10
-1.208338582677165
 20
0.004763779527559055
 11
-1.220015748031496
 21
0.004763779527559055
  0
ARC
  5
133
100
AcDbEntity
  8
adafruit_term_usb_label
  6
ByLayer
 62
  256
370
   -1
100
AcDbCircle
 10
-1.220015748031496
 20
0.004761811023622047
 40
0.00125
100
AcDbArc
 50
90
 51
270
  0
ARC
  5
134
100
AcDbEntity
  8
adafruit_term_usb_label
  6
ByLayer
 62
  256
370
   -1
100
AcDbCircle
 10
-1.208338582677165
 20
0.004761811023622047
 40
0.00125
100
AcDbArc
 50
270
 51
90
  0
LINE
  5
135
100
AcDbEntity
  8
adafruit_term_usb_label
  6
ByLayer
 62
  256
370
   -1
100
AcDbLine
 10
-1.220015748031496
 20
0.004763779527559055
 11
-1.225854330708661
 21
-0.001074803149606299
  0
ARC
  5
136
100
AcDbEntity
  8
adafruit_term_usb_label
  6
ByLayer
 62
  256
370
   -1
100
AcDbCircle
 10
-1.225852362204725
 20
-0.001076771653543307
 40
0.001249964349420311
100
AcDbArc
 50
134.9999999999962
 51
315.0000000000035
  0
ARC
  5
137
100
AcDbEntity
  8
adafruit_term_usb_label
  6
ByLayer
 62
  256
370
   -1
100
AcDbCircle
 10
-1.220013779527559
 20
0.004761811023622047
 40
0.001249964349419918
100
AcDbArc
 50
314.9999999999819
 51
134.9999999999819
  0
LINE
  5
138
100
AcDbEntity
  8
adafruit_term_usb_label
  6
ByLayer
 62
  256
370
   -1
100
AcDbLine
 10
-1.225854330708661
 20
-0.001074803149606299
 11
-1.225854330708661
 21
-0.01275196850393701
  0
ARC
  5
139
100
AcDbEntity
  8
adafruit_term_usb_label
  6
ByLayer
 62
  256
370
   -1
100
AcDbCircle
 10
-1.225852362204724
 20
-0.01275196850393701
 40
0.001249999999999973
100
AcDbArc
 50
180
 51
0
  0
ARC
  5
13A
100
AcDbEntity
  8
adafruit_term_usb_label
  6
ByLayer
 62
  256
370
   -1
100
AcDbCircle
 10
-1.225852362204724
 20
-0.001074803149606299
 40
0.001249999999999973
100
AcDbArc
 50
0
 51
180
  0
LINE
  5
13B
100
AcDbEntity
  8
adafruit_term_usb_label
  6
ByLayer
 62
  256
370
   -1
100
AcDbLine
 10
-1.225854330708661
 20
-0.01275196850393701
 11
-1.220015748031496
 21
-0.01859055118110236
  0
ARC
  5
13C
100
AcDbEntity
  8
adafruit_term_usb_label
  6
ByLayer
 62
  256
370
   -1
100
AcDbCircle
 10
-1.220013779527559
 20
-0.01858858267716535
 40
0.001249964349419918
100
AcDbArc
 50
225.0000000000181
 51
45.00000000001812
  0
ARC
  5
13D
100
AcDbEntity
  8
adafruit_term_usb_label
  6
ByLayer
 62
  256
370
   -1
100
AcDbCircle
 10
-1.225852362204725
 20
-0.01275
 40
0.001249964349420314
100
AcDbArc
 50
44.99999999999675
 51
225.0000000000039
  0
LINE
  5
13E
100
AcDbEntity
  8
adafruit_term_usb_label
  6
ByLayer
 62
  256
370
   -1
100
AcDbLine
 10
-1.220015748031496
 20
-0.01859055118110236
 11
-1.208338582677165
 21
-0.01859055118110236
  0
ARC
  5
13F
100
AcDbEntity
  8
adafruit_term_usb_label
  6
ByLayer
 62
  256
370
   -1
100
AcDbCircle
 10
-1.208338582677165
 20
-0.01858858267716535
 40
0.001250000000000005
100
AcDbArc
 50
270
 51
90
  0
ARC
  5
140
100
AcDbEntity
  8
adafruit_term_usb_label
  6
ByLayer
 62
  256
370
   -1
100
AcDbCircle
 10
-1.220015748031496
 20
-0.01858858267716535
 40
0.001250000000000005
100
AcDbArc
 50
90
 51
270
  0
LINE
  5
141
100
AcDbEntity
  8
adafruit_term_usb_label
  6
ByLayer
 62
  256
370
   -1
100
AcDbLine
 10
-1.208338582677165
 20
-0.01859055118110236
 11
-1.2025
 21
-0.01275196850393701
  0
ARC
  5
142
100
AcDbEntity
  8
adafruit_term_usb_label
  6
ByLayer
 62
  256
370
   -1
100
AcDbCircle
 10
-1.202500000000001
 20
-0.01274999999999993
 40
0.001251357066064255
100
AcDbArc
 50
315.0637327651656
 51
135.0637327651584
  0
ARC
  5
143
100
AcDbEntity
  8
adafruit_term_usb_label
  6
ByLayer
 62
  256
370
   -1
100
AcDbCircle
 10
-1.208336614173228
 20
-0.01858858267716543
 40
0.001249964349420311
100
AcDbArc
 50
135.0000000000034
 51
314.9999999999963
  0
LINE
  5
144
100
AcDbEntity
  8
adafruit_term_usb_label
  6
ByLayer
 62
  256
370
   -1
100
AcDbLine
 10
-1.237531496062992
 20
0.0550748031496063
 11
-1.208338582677165
 21
0.0550748031496063
  0
ARC
  5
145
100
AcDbEntity
  8
adafruit_term_usb_label
  6
ByLayer
 62
  256
370
   -1
100
AcDbCircle
 10
-1.208338582677165
 20
0.05507283464566929
 40
0.001250000000000001
100
AcDbArc
 50
270
 51
90
  0
ARC
  5
146
100
AcDbEntity
  8
adafruit_term_usb_label
  6
ByLayer
 62
  256
370
   -1
100
AcDbCircle
 10
-1.237531496062992
 20
0.05507283464566929
 40
0.001250000000000001
100
AcDbArc
 50
90
 51
270
  0
LINE
  5
147
100
AcDbEntity
  8
adafruit_term_usb_label
  6
ByLayer
 62
  256
370
   -1
100
AcDbLine
 10
-1.208338582677165
 20
0.0550748031496063
 11
-1.2025
 21
0.06090944881889764
  0
ARC
  5
148
100
AcDbEntity
  8
adafruit_term_usb_label
  6
ByLayer
 62
  256
370
   -1
100
AcDbCircle
 10
-1.202500000000001
 20
0.06091141732283473
 40
0.001251357066064251
100
AcDbArc
 50
315.0637327651657
 51
135.0637327651587
  0
ARC
  5
149
100
AcDbEntity
  8
adafruit_term_usb_label
  6
ByLayer
 62
  256
370
   -1
100
AcDbCircle
 10
-1.208336614173228
 20
0.05507283464566921
 40
0.00124996434942031
100
AcDbArc
 50
135.0000000000034
 51
314.9999999999964
  0
LINE
  5
14A
100
AcDbEntity
  8
adafruit_term_usb_label
  6
ByLayer
 62
  256
370
   -1
100
AcDbLine
 10
-1.2025
 20
0.06090944881889764
 11
-1.2025
 21
0.07258661417322834
  0
ARC
  5
14B
100
AcDbEntity
  8
adafruit_term_usb_label
  6
ByLayer
 62
  256
370
   -1
100
AcDbCircle
 10
-1.202501968503937
 20
0.07258661417322834
 40
0.001250000000000084
100
AcDbArc
 50
0
 51
180
  0
ARC
  5
14C
100
AcDbEntity
  8
adafruit_term_usb_label
  6
ByLayer
 62
  256
370
   -1
100
AcDbCircle
 10
-1.202501968503937
 20
0.06090944881889764
 40
0.001250000000000084
100
AcDbArc
 50
180
 51
0
  0
LINE
  5
14D
100
AcDbEntity
  8
adafruit_term_usb_label
  6
ByLayer
 62
  256
370
   -1
100
AcDbLine
 10
-1.2025
 20
0.07258661417322834
 11
-1.208338582677165
 21
0.0784251968503937
  0
ARC
  5
14E
100
AcDbEntity
  8
adafruit_term_usb_label
  6
ByLayer
 62
  256
370
   -1
100
AcDbCircle
 10
-1.208336614173228
 20
0.07842716535433078
 40
0.001249964349420313
100
AcDbArc
 50
45.00000000000361
 51
224.9999999999968
  0
ARC
  5
14F
100
AcDbEntity
  8
adafruit_term_usb_label
  6
ByLayer
 62
  256
370
   -1
100
AcDbCircle
 10
-1.202500000000001
 20
0.07258858267716528
 40
0.001251357066064253
100
AcDbArc
 50
224.9362672348413
 51
44.93626723483457
  0
LINE
  5
150
100
AcDbEntity
  8
adafruit_term_usb_label
  6
ByLayer
 62
  256
370
   -1
100
AcDbLine
 10
-1.208338582677165
 20
0.0784251968503937
 11
-1.237531496062992
 21
0.0784251968503937
  0
ARC
  5
151
100
AcDbEntity
  8
adafruit_term_usb_label
  6
ByLayer
 62
  256
370
   -1
100
AcDbCircle
 10
-1.237531496062992
 20
0.0784271653543307
 40
0.001250000000000001
100
AcDbArc
 50
90
 51
270
  0
ARC
  5
152
100
AcDbEntity
  8
adafruit_term_usb_label
  6
ByLayer
 62
  256
370
   -1
100
AcDbCircle
 10
-1.208338582677165
 20
0.0784271653543307
 40
0.001250000000000001
100
AcDbArc
 50
270
 51
90
  0
LINE
  5
153
100
AcDbEntity
  8
adafruit_term_usb_label
  6
ByLayer
 62
  256
370
   -1
100
AcDbLine
 10
-1.231692913385827
 20
0.115255905511811
 11
-1.237531496062992
 21
0.1094173228346457
  0
ARC
  5
154
100
AcDbEntity
  8
adafruit_term_usb_label
  6
ByLayer
 62
  256
370
   -1
100
AcDbCircle
 10
-1.237529527559055
 20
0.1094192913385827
 40
0.001249964349420322
100
AcDbArc
 50
135.0000000000027
 51
314.999999999996
  0
ARC
  5
155
100
AcDbEntity
  8
adafruit_term_usb_label
  6
ByLayer
 62
  256
370
   -1
100
AcDbCircle
 10
-1.23169094488189
 20
0.1152578740157481
 40
0.001249964349420283
100
AcDbArc
 50
315.0000000000045
 51
134.9999999999978
  0
LINE
  5
156
100
AcDbEntity
  8
adafruit_term_usb_label
  6
ByLayer
 62
  256
370
   -1
100
AcDbLine
 10
-1.237531496062992
 20
0.1094173228346457
 11
-1.237531496062992
 21
0.09774409448818897
  0
ARC
  5
157
100
AcDbEntity
  8
adafruit_term_usb_label
  6
ByLayer
 62
  256
370
   -1
100
AcDbCircle
 10
-1.237529527559055
 20
0.09774409448818897
 40
0.001249999999999973
100
AcDbArc
 50
180
 51
0
  0
ARC
  5
158
100
AcDbEntity
  8
adafruit_term_usb_label
  6
ByLayer
 62
  256
370
   -1
100
AcDbCircle
 10
-1.237529527559055
 20
0.1094173228346457
 40
0.001249999999999973
100
AcDbArc
 50
0
 51
180
  0
LINE
  5
159
100
AcDbEntity
  8
adafruit_term_usb_label
  6
ByLayer
 62
  256
370
   -1
100
AcDbLine
 10
-1.237531496062992
 20
0.09774409448818897
 11
-1.231692913385827
 21
0.09190551181102362
  0
ARC
  5
15A
100
AcDbEntity
  8
adafruit_term_usb_label
  6
ByLayer
 62
  256
370
   -1
100
AcDbCircle
 10
-1.23169094488189
 20
0.09190354330708654
 40
0.001249964349420308
100
AcDbArc
 50
225.0000000000036
 51
44.99999999999641
  0
ARC
  5
15B
100
AcDbEntity
  8
adafruit_term_usb_label
  6
ByLayer
 62
  256
370
   -1
100
AcDbCircle
 10
-1.237529527559055
 20
0.09774212598425189
 40
0.001249964349420313
100
AcDbArc
 50
45.00000000000404
 51
224.9999999999964
  0
LINE
  5
15C
100
AcDbEntity
  8
adafruit_term_usb_label
  6
ByLayer
 62
  256
370
   -1
100
AcDbLine
 10
-1.231692913385827
 20
0.09190551181102362
 11
-1.225854330708661
 21
0.09190551181102362
  0
ARC
  5
15D
100
AcDbEntity
  8
adafruit_term_usb_label
  6
ByLayer
 62
  256
370
   -1
100
AcDbCircle
 10
-1.225854330708661
 20
0.0919035433070866
 40
0.001249999999999987
100
AcDbArc
 50
270
 51
90
  0
ARC
  5
15E
100
AcDbEntity
  8
adafruit_term_usb_label
  6
ByLayer
 62
  256
370
   -1
100
AcDbCircle
 10
-1.231692913385827
 20
0.0919035433070866
 40
0.001249999999999987
100
AcDbArc
 50
90
 51
270
  0
LINE
  5
15F
100
AcDbEntity
  8
adafruit_term_usb_label
  6
ByLayer
 62
  256
370
   -1
100
AcDbLine
 10
-1.225854330708661
 20
0.09190551181102362
 11
-1.220015748031496
 21
0.09774409448818897
  0
ARC
  5
160
100
AcDbEntity
  8
adafruit_term_usb_label
  6
ByLayer
 62
  256
370
   -1
100
AcDbCircle
 10
-1.220013779527559
 20
0.09774212598425197
 40
0.001249964349419925
100
AcDbArc
 50
314.9999999999815
 51
134.9999999999816
  0
ARC
  5
161
100
AcDbEntity
  8
adafruit_term_usb_label
  6
ByLayer
 62
  256
370
   -1
100
AcDbCircle
 10
-1.225852362204725
 20
0.0919035433070866
 40
0.001249964349420308
100
AcDbArc
 50
134.9999999999964
 51
315.0000000000036
  0
LINE
  5
162
100
AcDbEntity
  8
adafruit_term_usb_label
  6
ByLayer
 62
  256
370
   -1
100
AcDbLine
 10
-1.220015748031496
 20
0.09774409448818897
 11
-1.220015748031496
 21
0.1094173228346457
  0
ARC
  5
163
100
AcDbEntity
  8
adafruit_term_usb_label
  6
ByLayer
 62
  256
370
   -1
100
AcDbCircle
 10
-1.220013779527559
 20
0.1094173228346457
 40
0.001249999999999973
100
AcDbArc
 50
0
 51
180
  0
ARC
  5
164
100
AcDbEntity
  8
adafruit_term_usb_label
  6
ByLayer
 62
  256
370
   -1
100
AcDbCircle
 10
-1.220013779527559
 20
0.09774409448818897
 40
0.001249999999999973
100
AcDbArc
 50
180
 51
0
  0
LINE
  5
165
100
AcDbEntity
  8
adafruit_term_usb_label
  6
ByLayer
 62
  256
370
   -1
100
AcDbLine
 10
-1.220015748031496
 20
0.1094173228346457
 11
-1.214177165354331
 21
0.115255905511811
  0
ARC
  5
166
100
AcDbEntity
  8
adafruit_term_usb_label
  6
ByLayer
 62
  256
370
   -1
100
AcDbCircle
 10
-1.214175196850393
 20
0.1152578740157479
 40
0.001249964349420322
100
AcDbArc
 50
314.999999999996
 51
135.0000000000027
  0
ARC
  5
167
100
AcDbEntity
  8
adafruit_term_usb_label
  6
ByLayer
 62
  256
370
   -1
100
AcDbCircle
 10
-1.220013779527559
 20
0.1094192913385826
 40
0.001249964349419925
100
AcDbArc
 50
134.9999999999816
 51
314.9999999999815
  0
LINE
  5
168
100
AcDbEntity
  8
adafruit_term_usb_label
  6
ByLayer
 62
  256
370
   -1
100
AcDbLine
 10
-1.214177165354331
 20
0.115255905511811
 11
-1.208338582677165
 21
0.115255905511811
  0
ARC
  5
169
100
AcDbEntity
  8
adafruit_term_usb_label
  6
ByLayer
 62
  256
370
   -1
100
AcDbCircle
 10
-1.208338582677165
 20
0.115257874015748
 40
0.001250000000000001
100
AcDbArc
 50
270
 51
90
  0
ARC
  5
16A
100
AcDbEntity
  8
adafruit_term_usb_label
  6
ByLayer
 62
  256
370
   -1
100
AcDbCircle
 10
-1.214177165354331
 20
0.115257874015748
 40
0.001250000000000001
100
AcDbArc
 50
90
 51
270
  0
LINE
  5
16B
100
AcDbEntity
  8
adafruit_term_usb_label
  6
ByLayer
 62
  256
370
   -1
100
AcDbLine
 10
-1.208338582677165
 20
0.115255905511811
 11
-1.2025
 21
0.1094173228346457
  0
ARC
  5
16C
100
AcDbEntity
  8
adafruit_term_usb_label
  6
ByLayer
 62
  256
370
   -1
100
AcDbCircle
 10
-1.202500000000001
 20
0.1094192913385826
 40
0.001251357066064224
100
AcDbArc
 50
224.9362672348404
 51
44.93626723483277
  0
ARC
  5
16D
100
AcDbEntity
  8
adafruit_term_usb_label
  6
ByLayer
 62
  256
370
   -1
100
AcDbCircle
 10
-1.208336614173228
 20
0.1152578740157481
 40
0.001249964349420283
100
AcDbArc
 50
45.00000000000224
 51
224.9999999999955
  0
LINE
  5
16E
100
AcDbEntity
  8
adafruit_term_usb_label
  6
ByLayer
 62
  256
370
   -1
100
AcDbLine
 10
-1.2025
 20
0.1094173228346457
 11
-1.2025
 21
0.09774409448818897
  0
ARC
  5
16F
100
AcDbEntity
  8
adafruit_term_usb_label
  6
ByLayer
 62
  256
370
   -1
100
AcDbCircle
 10
-1.202501968503937
 20
0.09774409448818897
 40
0.001250000000000084
100
AcDbArc
 50
180
 51
0
  0
ARC
  5
170
100
AcDbEntity
  8
adafruit_term_usb_label
  6
ByLayer
 62
  256
370
   -1
100
AcDbCircle
 10
-1.202501968503937
 20
0.1094173228346457
 40
0.001250000000000084
100
AcDbArc
 50
0
 51
180
  0
LINE
  5
171
100
AcDbEntity
  8
adafruit_term_usb_label
  6
ByLayer
 62
  256
370
   -1
100
AcDbLine
 10
-1.2025
 20
0.09774409448818897
 11
-1.208338582677165
 21
0.09190551181102362
  0
ARC
  5
172
100
AcDbEntity
  8
adafruit_term_usb_label
  6
ByLayer
 62
  256
370
   -1
100
AcDbCircle
 10
-1.208336614173228
 20
0.09190354330708654
 40
0.001249964349420308
100
AcDbArc
 50
135.0000000000036
 51
314.9999999999964
  0
ARC
  5
173
100
AcDbEntity
  8
adafruit_term_usb_label
  6
ByLayer
 62
  256
370
   -1
100
AcDbCircle
 10
-1.202500000000001
 20
0.09774212598425203
 40
0.001251357066064253
100
AcDbArc
 50
315.0637327651659
 51
135.0637327651583
  0
LINE
  5
174
100
AcDbEntity
  8
adafruit_term_usb_label
  6
ByLayer
 62
  256
370
   -1
100
AcDbLine
 10
-1.2025
 20
0.1287362204724409
 11
-1.237531496062992
 21
0.1287362204724409
  0
ARC
  5
175
100
AcDbEntity
  8
adafruit_term_usb_label
  6
ByLayer
 62
  256
370
   -1
100
AcDbCircle
 10
-1.237531496062992
 20
0.1287342519685039
 40
0.001250000000000001
100
AcDbArc
 50
90
 51
270
  0
ARC
  5
176
100
AcDbEntity
  8
adafruit_term_usb_label
  6
ByLayer
 62
  256
370
   -1
100
AcDbCircle
 10
-1.2025
 20
0.1287342519685039
 40
0.001250000000000001
100
AcDbArc
 50
270
 51
90
  0
LINE
  5
177
100
AcDbEntity
  8
adafruit_term_usb_label
  6
ByLayer
 62
  256
370
   -1
100
AcDbLine
 10
-1.237531496062992
 20
0.1287362204724409
 11
-1.237531496062992
 21
0.146251968503937
  0
ARC
  5
178
100
AcDbEntity
  8
adafruit_term_usb_label
  6
ByLayer
 62
  256
370
   -1
100
AcDbCircle
 10
-1.237529527559055
 20
0.146251968503937
 40
0.001249999999999973
100
AcDbArc
 50
0
 51
180
  0
ARC
  5
179
100
AcDbEntity
  8
adafruit_term_usb_label
  6
ByLayer
 62
  256
370
   -1
100
AcDbCircle
 10
-1.237529527559055
 20
0.1287362204724409
 40
0.001249999999999973
100
AcDbArc
 50
180
 51
0
  0
LINE
  5
17A
100
AcDbEntity
  8
adafruit_term_usb_label
  6
ByLayer
 62
  256
370
   -1
100
AcDbLine
 10
-1.237531496062992
 20
0.146251968503937
 11
-1.231692913385827
 21
0.1520905511811024
  0
ARC
  5
17B
100
AcDbEntity
  8
adafruit_term_usb_label
  6
ByLayer
 62
  256
370
   -1
100
AcDbCircle
 10
-1.23169094488189
 20
0.1520885826771655
 40
0.001249964349420317
100
AcDbArc
 50
315.0000000000027
 51
134.9999999999964
  0
ARC
  5
17C
100
AcDbEntity
  8
adafruit_term_usb_label
  6
ByLayer
 62
  256
370
   -1
100
AcDbCircle
 10
-1.237529527559055
 20
0.14625
 40
0.001249964349420327
100
AcDbArc
 50
135.0000000000027
 51
314.9999999999955
  0
LINE
  5
17D
100
AcDbEntity
  8
adafruit_term_usb_label
  6
ByLayer
 62
  256
370
   -1
100
AcDbLine
 10
-1.231692913385827
 20
0.1520905511811024
 11
-1.225854330708661
 21
0.1520905511811024
  0
ARC
  5
17E
100
AcDbEntity
  8
adafruit_term_usb_label
  6
ByLayer
 62
  256
370
   -1
100
AcDbCircle
 10
-1.225854330708661
 20
0.1520885826771654
 40
0.001249999999999946
100
AcDbArc
 50
270
 51
90
  0
ARC
  5
17F
100
AcDbEntity
  8
adafruit_term_usb_label
  6
ByLayer
 62
  256
370
   -1
100
AcDbCircle
 10
-1.231692913385827
 20
0.1520885826771654
 40
0.001249999999999946
100
AcDbArc
 50
90
 51
270
  0
LINE
  5
180
100
AcDbEntity
  8
adafruit_term_usb_label
  6
ByLayer
 62
  256
370
   -1
100
AcDbLine
 10
-1.225854330708661
 20
0.1520905511811024
 11
-1.220015748031496
 21
0.146251968503937
  0
ARC
  5
181
100
AcDbEntity
  8
adafruit_term_usb_label
  6
ByLayer
 62
  256
370
   -1
100
AcDbCircle
 10
-1.220013779527559
 20
0.14625
 40
0.001249964349419896
100
AcDbArc
 50
225.0000000000171
 51
45.0000000000171
  0
ARC
  5
182
100
AcDbEntity
  8
adafruit_term_usb_label
  6
ByLayer
 62
  256
370
   -1
100
AcDbCircle
 10
-1.225852362204725
 20
0.1520885826771654
 40
0.001249964349420327
100
AcDbArc
 50
44.9999999999973
 51
225.0000000000045
  0
LINE
  5
183
100
AcDbEntity
  8
adafruit_term_usb_label
  6
ByLayer
 62
  256
370
   -1
100
AcDbLine
 10
-1.220015748031496
 20
0.146251968503937
 11
-1.214177165354331
 21
0.1520905511811024
  0
ARC
  5
184
100
AcDbEntity
  8
adafruit_term_usb_label
  6
ByLayer
 62
  256
370
   -1
100
AcDbCircle
 10
-1.214175196850393
 20
0.1520885826771652
 40
0.001249964349420317
100
AcDbArc
 50
314.9999999999964
 51
135.0000000000027
  0
ARC
  5
185
100
AcDbEntity
  8
adafruit_term_usb_label
  6
ByLayer
 62
  256
370
   -1
100
AcDbCircle
 10
-1.220013779527559
 20
0.14625
 40
0.001249964349419896
100
AcDbArc
 50
134.9999999999829
 51
314.9999999999829
  0
LINE
  5
186
100
AcDbEntity
  8
adafruit_term_usb_label
  6
ByLayer
 62
  256
370
   -1
100
AcDbLine
 10
-1.214177165354331
 20
0.1520905511811024
 11
-1.208338582677165
 21
0.1520905511811024
  0
ARC
  5
187
100
AcDbEntity
  8
adafruit_term_usb_label
  6
ByLayer
 62
  256
370
   -1
100
AcDbCircle
 10
-1.208338582677165
 20
0.1520885826771654
 40
0.001249999999999946
100
AcDbArc
 50
270
 51
90
  0
ARC
  5
188
100
AcDbEntity
  8
adafruit_term_usb_label
  6
ByLayer
 62
  256
370
   -1
100
AcDbCircle
 10
-1.214177165354331
 20
0.1520885826771654
 40
0.001249999999999946
100
AcDbArc
 50
90
 51
270
  0
LINE
  5
189
100
AcDbEntity
  8
adafruit_term_usb_label
  6
ByLayer
 62
  256
370
   -1
100
AcDbLine
 10
-1.208338582677165
 20
0.1520905511811024
 11
-1.2025
 21
0.146251968503937
  0
ARC
  5
18A
100
AcDbEntity
  8
adafruit_term_usb_label
  6
ByLayer
 62
  256
370
   -1
100
AcDbCircle
 10
-1.202500000000001
 20
0.1462499999999999
 40
0.001251357066064258
100
AcDbArc
 50
224.9362672348413
 51
44.93626723483501
  0
ARC
  5
18B
100
AcDbEntity
  8
adafruit_term_usb_label
  6
ByLayer
 62
  256
370
   -1
100
AcDbCircle
 10
-1.208336614173228
 20
0.1520885826771655
 40
0.001249964349420317
100
AcDbArc
 50
45.00000000000361
 51
224.9999999999973
  0
LINE
  5
18C
100
AcDbEntity
  8
adafruit_term_usb_label
  6
ByLayer
 62
  256
370
   -1
100
AcDbLine
 10
-1.2025
 20
0.146251968503937
 11
-1.2025
 21
0.1287362204724409
  0
ARC
  5
18D
100
AcDbEntity
  8
adafruit_term_usb_label
  6
ByLayer
 62
  256
370
   -1
100
AcDbCircle
 10
-1.202501968503937
 20
0.1287362204724409
 40
0.001250000000000084
100
AcDbArc
 50
180
 51
0
  0
ARC
  5
18E
100
AcDbEntity
  8
adafruit_term_usb_label
  6
ByLayer
 62
  256
370
   -1
100
AcDbCircle
 10
-1.202501968503937
 20
0.146251968503937
 40
0.001250000000000084
100
AcDbArc
 50
0
 51
180
  0
LINE
  5
18F
100
AcDbEntity
  8
adafruit_term_usb_label
  6
ByLayer
 62
  256
370
   -1
100
AcDbLine
 10
-1.220015748031496
 20
0.1287362204724409
 11
-1.220015748031496
 21
0.146251968503937
  0
ARC
  5
190
100
AcDbEntity
  8
adafruit_term_usb_label
  6
ByLayer
 62
  256
370
   -1
100
AcDbCircle
 10
-1.220013779527559
 20
0.146251968503937
 40
0.001249999999999973
100
AcDbArc
 50
0
 51
180
  0
ARC
  5
191
100
AcDbEntity
  8
adafruit_term_usb_label
  6
ByLayer
 62
  256
370
   -1
100
AcDbCircle
 10
-1.220013779527559
 20
0.1287362204724409
 40
0.001249999999999973
100
AcDbArc
 50
180
 51
0
  0
ENDSEC
  0
SECTION
  2
OBJECTS
  0
DICTIONARY
  5
C
330
0
100
AcDbDictionary
281
    1
  3
ACAD_GROUP
350
D
  0
DICTIONARY
  5
D
330
C
100
AcDbDictionary
281
    1
  0
ENDSEC
  0
EOF
